<svg width="16" height="16" fill="none" xmlns="http://www.w3.org/2000/svg"><g clip-path="url(#clip0)" fill="#FAAF40" stroke="#FAAF40" stroke-width=".24"><path d="M14.245-.12H1.355A.876.876 0 0 0 .48.755v14.49c0 .482.393.875.875.875h12.89a.876.876 0 0 0 .875-.875V.755a.876.876 0 0 0-.875-.875zM1.355.653h12.89c.056 0 .102.046.102.102v6.858H1.253V.755c0-.056.046-.102.102-.102zm12.89 14.694H1.355a.102.102 0 0 1-.102-.102V8.387h13.094v6.858a.102.102 0 0 1-.102.102z"/><path d="M6.335 4.92h2.93c.582 0 1.055-.473 1.055-1.055v-.398a.386.386 0 1 0-.773 0v.398a.282.282 0 0 1-.282.282h-2.93a.282.282 0 0 1-.282-.282v-.398a.386.386 0 1 0-.773 0v.398c0 .582.473 1.055 1.055 1.055zm3.598 5.893a.386.386 0 0 0-.386.387v.399a.282.282 0 0 1-.282.281h-2.93a.282.282 0 0 1-.282-.281V11.2a.386.386 0 1 0-.773 0v.399c0 .581.473 1.054 1.055 1.054h2.93c.582 0 1.055-.473 1.055-1.054V11.2a.386.386 0 0 0-.387-.387z"/></g><defs><clipPath id="clip0"><path fill="#fff" d="M0 0h16v16H0z"/></clipPath></defs></svg>