<svg width="16" height="16" fill="none" xmlns="http://www.w3.org/2000/svg"><path d="M1.302 14.648h13.383a.503.503 0 0 0 .509-.508V2.79a.503.503 0 0 0-.509-.508h-2.518v-.434a.503.503 0 0 0-.508-.508.503.503 0 0 0-.509.508v.434H4.924v-.434a.503.503 0 0 0-.508-.508.503.503 0 0 0-.509.508v.434H1.302a.503.503 0 0 0-.508.509v11.361c0 .273.235.496.508.496zM1.811 3.3h2.096v.273c0 .285.223.509.509.509a.503.503 0 0 0 .508-.509V3.3h6.226v.273c0 .285.224.509.509.509a.503.503 0 0 0 .508-.509V3.3h2.022v1.315H1.811V3.299zm0 2.332h12.366v8.012H1.81V5.631z" fill="#BFBFBF"/><path d="M11.659 7.963H4.341a.503.503 0 0 0-.508.508c0 .286.223.509.508.509h7.318a.503.503 0 0 0 .508-.509.503.503 0 0 0-.508-.508zM8 10.419H4.341a.503.503 0 0 0-.508.508c0 .286.223.509.508.509h3.66a.503.503 0 0 0 .508-.509A.503.503 0 0 0 8 10.42z" fill="#BFBFBF"/></svg>