<svg width="16" height="16" fill="none" xmlns="http://www.w3.org/2000/svg"><g clip-path="url(#clip0)" fill="#fff"><path d="M12.384 4.782C14.447 4.782 16 3.98 16 2.915c0-1.064-1.553-1.866-3.616-1.866-2.062 0-3.616.802-3.616 1.866 0 1.065 1.554 1.867 3.616 1.867zm0-2.931c1.72 0 2.818.632 2.818 1.068 0 .436-1.098 1.068-2.818 1.068s-2.817-.632-2.817-1.068c0-.436 1.098-1.068 2.817-1.068zm3.313 2.967a.4.4 0 0 0-.512.236c-.17.463-1.287.962-2.798.962-1.47 0-2.57-.473-2.784-.928a.401.401 0 0 0-.532-.193.401.401 0 0 0-.193.532c.39.832 1.8 1.387 3.51 1.387.814 0 1.606-.133 2.235-.38.692-.269 1.147-.651 1.314-1.107a.401.401 0 0 0-.24-.509zm0 2.036a.4.4 0 0 0-.512.236c-.17.462-1.287.961-2.798.961-1.47 0-2.57-.472-2.784-.928a.401.401 0 0 0-.532-.193.401.401 0 0 0-.193.533c.39.831 1.8 1.387 3.51 1.387.814 0 1.606-.133 2.235-.38.692-.269 1.147-.651 1.314-1.107a.401.401 0 0 0-.24-.51zm0 2.032a.4.4 0 0 0-.512.237c-.17.462-1.287.96-2.798.96-1.47 0-2.57-.471-2.784-.927a.401.401 0 0 0-.532-.193.401.401 0 0 0-.193.532c.39.832 1.8 1.387 3.51 1.387.814 0 1.606-.133 2.235-.379.692-.27 1.147-.652 1.314-1.108a.401.401 0 0 0-.24-.509zm0 2.036a.4.4 0 0 0-.512.236c-.17.463-1.287.962-2.798.962-1.47 0-2.57-.473-2.784-.928a.401.401 0 0 0-.532-.194.401.401 0 0 0-.193.533c.39.831 1.8 1.387 3.51 1.387.814 0 1.606-.133 2.235-.38.692-.269 1.147-.651 1.314-1.107a.399.399 0 0 0-.24-.509zm0 2.032a.4.4 0 0 0-.512.237c-.17.462-1.287.961-2.798.961-1.47 0-2.57-.472-2.784-.928a.401.401 0 0 0-.532-.193.401.401 0 0 0-.193.532c.39.832 1.8 1.387 3.51 1.387.814 0 1.606-.133 2.235-.379.692-.27 1.147-.652 1.314-1.108a.401.401 0 0 0-.24-.508zM6.926 8.886a.4.4 0 0 0-.513.237c-.17.462-1.287.96-2.797.96-1.47 0-2.572-.471-2.784-.927a.401.401 0 0 0-.533-.193.401.401 0 0 0-.193.532c.39.832 1.8 1.387 3.51 1.387.815 0 1.606-.133 2.235-.379.692-.27 1.148-.652 1.314-1.108a.401.401 0 0 0-.24-.509zm0 2.036a.4.4 0 0 0-.513.236c-.17.463-1.287.962-2.797.962-1.47 0-2.572-.473-2.784-.928a.401.401 0 0 0-.533-.194.401.401 0 0 0-.193.533c.39.831 1.8 1.387 3.51 1.387.815 0 1.606-.133 2.235-.38.692-.269 1.148-.651 1.314-1.107a.399.399 0 0 0-.24-.509zm0 2.032a.4.4 0 0 0-.513.237c-.17.462-1.287.961-2.797.961-1.47 0-2.572-.472-2.784-.928a.401.401 0 0 0-.533-.193.401.401 0 0 0-.193.532c.39.832 1.8 1.387 3.51 1.387.815 0 1.606-.133 2.235-.379.692-.27 1.148-.652 1.314-1.108a.401.401 0 0 0-.24-.508zm-3.31-7.836C1.553 5.118 0 5.919 0 6.984 0 8.048 1.553 8.85 3.616 8.85c2.062 0 3.616-.802 3.616-1.866 0-1.065-1.554-1.866-3.616-1.866zm0 2.934c-1.72 0-2.818-.632-2.818-1.068 0-.436 1.098-1.068 2.818-1.068s2.817.632 2.817 1.068c0 .436-1.097 1.068-2.817 1.068z"/></g><defs><clipPath id="clip0"><path fill="#fff" d="M0 0h16v16H0z"/></clipPath></defs></svg>