<svg width="16" height="16" fill="none" xmlns="http://www.w3.org/2000/svg"><g clip-path="url(#clip0)" fill="#BEBEBE"><path d="M12.231 6.859l-.001-.01a.366.366 0 0 0-.023-.084l-.005-.01a.388.388 0 0 0-.013-.028l-.007-.012-.004-.007a.362.362 0 0 0-.017-.024l-.003-.005a.338.338 0 0 0-.03-.033l-.005-.005a.37.37 0 0 0-.028-.024l-.007-.006a.365.365 0 0 0-.04-.026L6.715 3.553l3.07-1.933 5.148 2.926-2.168 1.365a.362.362 0 1 0 .386.613l2.68-1.688a.362.362 0 0 0-.015-.62L9.955.882a.362.362 0 0 0-.372.009L5.82 3.262h-.003l-1.88 1.185-.003.001L.17 6.82a.362.362 0 0 0 .014.62l5.862 3.333a.361.361 0 0 0 .371-.009l2.68-1.687a.362.362 0 1 0-.386-.613l-2.496 1.572L1.066 7.11l3.07-1.934 5.491 3.121v4.133a.362.362 0 0 0 .555.307l1.883-1.186a.362.362 0 0 0 .169-.306V6.894a.399.399 0 0 0-.003-.036zm-1.88 4.916V8.087c0-.13-.07-.25-.183-.315L4.832 4.739 6.02 3.99l5.147 2.926-.45.284a.362.362 0 1 0 .385.612l.408-.256v3.488l-1.159.73z"/><path d="M15.445 5.671l-2.68 1.688a.362.362 0 1 0 .386.612l2.68-1.687a.362.362 0 1 0-.386-.613zM8.71 9.912l-2.496 1.572L.541 8.26a.362.362 0 1 0-.358.63l5.862 3.332a.361.361 0 0 0 .372-.009l2.68-1.687a.362.362 0 0 0-.386-.613zm6.735-2.792l-2.68 1.687a.362.362 0 1 0 .386.612l2.68-1.687a.362.362 0 1 0-.386-.613z"/><path d="M8.71 11.36l-2.496 1.572L.541 9.707a.362.362 0 1 0-.358.63l5.862 3.332a.361.361 0 0 0 .372-.009l2.68-1.687a.362.362 0 1 0-.386-.613zm6.735-2.792l-2.68 1.687a.362.362 0 1 0 .386.613l2.68-1.688a.362.362 0 1 0-.386-.612z"/><path d="M8.71 12.808L6.215 14.38.541 11.155a.362.362 0 1 0-.358.63l5.862 3.332a.361.361 0 0 0 .372-.009l2.68-1.687a.362.362 0 1 0-.386-.613z"/></g><defs><clipPath id="clip0"><path fill="#fff" d="M0 0h16v16H0z"/></clipPath></defs></svg>