<svg width="131" height="43" fill="none" xmlns="http://www.w3.org/2000/svg"><path d="M12.442 6.47c1.035 0 2.015.415 2.75 1.162l10.917 11.531c.3.332.844.332 1.144 0l10.29-10.895C33.706 3.346 27.77.193 21.1.193 9.502.193.082 9.733.082 21.513c0 11.78 9.393 21.32 20.99 21.32a20.773 20.773 0 0 0 14.158-5.557V22.48a.379.379 0 0 0-.654-.276l-6.752 7.881a1.54 1.54 0 0 1-2.34 0l-6.726-7.881a.379.379 0 0 0-.653.277v15.264c-4.193 0-7.623-2.849-7.623-7.107V8.462c0-1.107.871-1.991 1.96-1.991z" fill="url(#paint0_linear)"/><path d="M45.875 26.685H40.92c-.654 0-1.198.525-1.198 1.189v5.033a1.2 1.2 0 0 0 1.198 1.216h4.955a1.2 1.2 0 0 0 1.197-1.216v-5.033c0-.664-.544-1.19-1.197-1.19z" fill="url(#paint1_linear)"/><path d="M42.117 20.546h3.43c.6 0 1.063-.498 1.063-1.079v-3.484c0-.608-.49-1.079-1.062-1.079h-3.43c-.6 0-1.062.498-1.062 1.079v3.484c0 .58.463 1.079 1.061 1.079z" fill="url(#paint2_linear)"/><path d="M50.64 21.182h-2.804a.767.767 0 0 0-.763.774v2.848c0 .415.327.775.763.775h2.804a.767.767 0 0 0 .762-.775v-2.848a.785.785 0 0 0-.762-.774z" fill="url(#paint3_linear)"/><path d="M47.155 13.771h2.014a.58.58 0 0 0 .572-.58v-2.047a.58.58 0 0 0-.572-.58h-2.014a.58.58 0 0 0-.572.58v2.046a.58.58 0 0 0 .572.581z" fill="url(#paint4_linear)"/><path d="M26.653 31.607c-.081 0-.136-.028-.217-.028a31.65 31.65 0 0 1 2.096 8.794 20.314 20.314 0 0 0 5.717-3.567v-12.72l-5.69 6.664c-.463.553-1.17.857-1.906.857z" fill="url(#paint5_linear)"/><path d="M21.1 1.161c-7.733 0-14.43 4.452-17.779 10.978a29.22 29.22 0 0 1 6.18 1.908V8.461c0-1.631 1.307-2.986 2.94-2.986a4.76 4.76 0 0 1 3.431 1.466l10.781 11.42 9.584-10.12c-3.812-4.508-9.284-7.08-15.138-7.08z" fill="url(#paint6_linear)"/><path d="M45.874 27.32H40.92a.55.55 0 0 0-.544.554v5.032a.55.55 0 0 0 .544.553h4.956a.55.55 0 0 0 .544-.553v-5.032c.027-.305-.245-.553-.544-.553z" fill="url(#paint7_linear)"/><path d="M42.117 19.91h3.43a.433.433 0 0 0 .436-.443v-3.484a.433.433 0 0 0-.435-.443h-3.43a.433.433 0 0 0-.436.443v3.484c0 .221.19.443.435.443z" fill="url(#paint8_linear)"/><path d="M50.639 21.846h-2.805c-.054 0-.108.055-.108.11v2.848c0 .056.054.11.108.11h2.805c.054 0 .109-.054.109-.11v-2.848c0-.055-.028-.11-.11-.11z" fill="url(#paint9_linear)"/><path d="M49.114 11.116h-1.96v1.991h1.96v-1.99z" fill="url(#paint10_linear)"/><path d="M67.588 7.203l3.287 9.281 3.27-9.28h3.462V20h-2.645v-3.498l.264-6.038L71.772 20H69.96l-3.445-9.527.263 6.029V20h-2.636V7.203h3.445zM85.254 20a2.822 2.822 0 0 1-.255-.852c-.615.685-1.415 1.028-2.4 1.028-.931 0-1.705-.27-2.32-.809-.61-.539-.914-1.219-.914-2.039 0-1.008.372-1.781 1.116-2.32.75-.54 1.832-.812 3.244-.818h1.169v-.544c0-.44-.115-.792-.343-1.055-.223-.264-.577-.396-1.064-.396-.427 0-.764.103-1.01.308-.24.205-.36.486-.36.844h-2.54c0-.551.17-1.06.509-1.53.34-.468.82-.835 1.441-1.098.621-.27 1.319-.404 2.092-.404 1.172 0 2.1.295 2.786.887.692.586 1.037 1.412 1.037 2.479v4.122c.006.902.132 1.585.378 2.048V20h-2.566zm-2.1-1.767c.374 0 .72-.082 1.036-.246.317-.17.551-.395.704-.676v-1.635h-.95c-1.271 0-1.948.44-2.03 1.318l-.009.15c0 .316.112.577.334.782.223.205.528.307.914.307zm8.577-7.743l.08 1.099c.68-.85 1.59-1.274 2.733-1.274 1.008 0 1.758.295 2.25.887.492.592.744 1.477.756 2.654V20h-2.54v-6.082c0-.54-.117-.929-.352-1.169-.234-.246-.624-.37-1.169-.37-.715 0-1.25.306-1.608.915V20h-2.54v-9.51h2.39zm7.383 4.685c0-1.46.346-2.634 1.037-3.525.698-.89 1.635-1.335 2.813-1.335 1.043 0 1.854.357 2.434 1.072l.106-.897h2.303v9.194c0 .832-.191 1.555-.572 2.17a3.614 3.614 0 0 1-1.59 1.407c-.686.322-1.489.483-2.409.483-.697 0-1.377-.14-2.039-.422-.662-.275-1.163-.633-1.503-1.072l1.125-1.547c.633.71 1.401 1.064 2.303 1.064.674 0 1.198-.182 1.573-.545.375-.358.563-.867.563-1.53v-.51c-.586.663-1.357.994-2.312.994-1.142 0-2.068-.445-2.777-1.336-.703-.897-1.055-2.083-1.055-3.56v-.105zm2.54.184c0 .862.173 1.539.519 2.03.346.487.82.73 1.424.73.773 0 1.327-.29 1.661-.87V13.25c-.34-.58-.888-.87-1.644-.87a1.67 1.67 0 0 0-1.441.747c-.346.498-.519 1.242-.519 2.232zm7.717-.202c0-.943.182-1.784.545-2.522a3.999 3.999 0 0 1 1.564-1.714c.686-.404 1.48-.606 2.382-.606 1.284 0 2.329.392 3.138 1.177.814.785 1.269 1.852 1.362 3.2l.018.65c0 1.459-.407 2.63-1.222 3.515-.814.88-1.907 1.319-3.278 1.319s-2.467-.44-3.287-1.319c-.815-.878-1.222-2.074-1.222-3.585v-.115zm2.54.185c0 .902.17 1.594.51 2.074.34.475.826.712 1.459.712.615 0 1.096-.234 1.441-.703.346-.475.519-1.23.519-2.268 0-.884-.173-1.57-.519-2.056-.345-.487-.832-.73-1.459-.73-.621 0-1.101.243-1.441.73-.34.48-.51 1.227-.51 2.24z" fill="#EE4023"/><path d="M66.676 32.04h-1.092V36h-1.6v-9.242h1.6v3.885h.882l2.717-3.885h1.968l-3.174 4.424L71.43 36H69.5l-2.824-3.96zm5.027.462c0-.672.133-1.278.4-1.815a2.896 2.896 0 0 1 1.124-1.244c.482-.292 1.036-.438 1.663-.438.926 0 1.678.298 2.253.895.58.597.893 1.388.94 2.374l.006.362c0 .677-.131 1.282-.394 1.815-.258.533-.63.946-1.117 1.238-.482.292-1.04.438-1.676.438-.969 0-1.745-.322-2.33-.965-.579-.647-.869-1.508-.869-2.583v-.077zm1.543.134c0 .706.146 1.26.438 1.663.292.398.698.596 1.218.596s.925-.203 1.213-.609c.292-.406.438-1 .438-1.784 0-.694-.15-1.244-.45-1.65-.297-.406-.701-.61-1.213-.61-.504 0-.904.202-1.2.604-.296.398-.444.994-.444 1.79zm7.75-3.504v5.637h2.146v-5.637h1.542v5.637h2.152v-5.637h1.536V36h-8.918v-6.868h1.542zm12.073 6.995c-.977 0-1.77-.307-2.38-.92-.605-.618-.908-1.44-.908-2.463v-.19c0-.686.131-1.298.394-1.835a3.036 3.036 0 0 1 1.117-1.263 2.948 2.948 0 0 1 1.6-.451c.935 0 1.656.298 2.164.895.512.597.768 1.44.768 2.533v.622h-4.488c.047.567.235 1.015.565 1.345.335.33.754.495 1.257.495.707 0 1.282-.285 1.727-.856l.831.793c-.275.41-.643.73-1.104.959a3.455 3.455 0 0 1-1.543.336zm-.184-5.884c-.423 0-.766.148-1.028.444-.258.296-.423.709-.495 1.238H94.3v-.114c-.034-.517-.172-.906-.413-1.168-.241-.267-.575-.4-1.003-.4zm9.978-1.111V36h-1.542v-5.624h-1.942l-.127 2.393c-.08 1.151-.303 1.978-.666 2.482-.36.5-.912.749-1.657.749h-.476l-.007-1.282.318-.032c.338-.047.584-.252.736-.616.157-.368.256-1.037.298-2.005l.127-2.933h4.938zm4.666 6.995c-.978 0-1.771-.307-2.381-.92-.605-.618-.907-1.44-.907-2.463v-.19c0-.686.131-1.298.393-1.835a3.04 3.04 0 0 1 1.117-1.263 2.953 2.953 0 0 1 1.6-.451c.935 0 1.657.298 2.165.895.512.597.768 1.44.768 2.533v.622h-4.488c.046.567.235 1.015.565 1.345.334.33.753.495 1.257.495.706 0 1.282-.285 1.726-.856l.832.793a2.8 2.8 0 0 1-1.105.959 3.453 3.453 0 0 1-1.542.336zm-.184-5.884c-.423 0-.766.148-1.029.444-.258.296-.423.709-.495 1.238h2.939v-.114c-.034-.517-.171-.906-.412-1.168-.242-.267-.576-.4-1.003-.4zm6.582 3.04h-.781V36h-1.542v-6.868h1.542v2.742h.68l1.898-2.742h1.904l-2.482 3.288 2.691 3.58h-2.005l-1.905-2.717z" fill="#474747"/><defs><linearGradient id="paint0_linear" x1="77.731" y1="-23.317" x2="15.714" y2="24.261" gradientUnits="userSpaceOnUse"><stop stop-color="#FAAF40"/><stop offset=".522" stop-color="#F16522"/><stop offset="1" stop-color="#E23D21"/></linearGradient><linearGradient id="paint1_linear" x1="90.407" y1="-6.794" x2="28.39" y2="40.783" gradientUnits="userSpaceOnUse"><stop stop-color="#FAAF40"/><stop offset=".522" stop-color="#F16522"/><stop offset="1" stop-color="#E23D21"/></linearGradient><linearGradient id="paint2_linear" x1="84.569" y1="-14.526" x2="22.552" y2="33.052" gradientUnits="userSpaceOnUse"><stop stop-color="#FAAF40"/><stop offset=".522" stop-color="#F16522"/><stop offset="1" stop-color="#E23D21"/></linearGradient><linearGradient id="paint3_linear" x1="89.056" y1="-8.126" x2="27.039" y2="39.452" gradientUnits="userSpaceOnUse"><stop stop-color="#FAAF40"/><stop offset=".522" stop-color="#F16522"/><stop offset="1" stop-color="#E23D21"/></linearGradient><linearGradient id="paint4_linear" x1="83.489" y1="-15.812" x2="21.472" y2="31.766" gradientUnits="userSpaceOnUse"><stop stop-color="#FAAF40"/><stop offset=".522" stop-color="#F16522"/><stop offset="1" stop-color="#E23D21"/></linearGradient><linearGradient id="paint5_linear" x1="51.986" y1="-2.265" x2="22.667" y2="45.666" gradientUnits="userSpaceOnUse"><stop stop-color="#FAAF40"/><stop offset=".522" stop-color="#F16522"/><stop offset="1" stop-color="#E23D21"/></linearGradient><linearGradient id="paint6_linear" x1="33.752" y1="-13.419" x2="4.432" y2="34.512" gradientUnits="userSpaceOnUse"><stop stop-color="#FAAF40"/><stop offset=".522" stop-color="#F16522"/><stop offset="1" stop-color="#E23D21"/></linearGradient><linearGradient id="paint7_linear" x1="59.903" y1="2.577" x2="30.584" y2="50.509" gradientUnits="userSpaceOnUse"><stop stop-color="#FAAF40"/><stop offset=".522" stop-color="#F16522"/><stop offset="1" stop-color="#E23D21"/></linearGradient><linearGradient id="paint8_linear" x1="54.619" y1="-.484" x2="25.3" y2="47.448" gradientUnits="userSpaceOnUse"><stop stop-color="#FAAF40"/><stop offset=".522" stop-color="#F16522"/><stop offset="1" stop-color="#E23D21"/></linearGradient><linearGradient id="paint9_linear" x1="60.942" y1="3.643" x2="31.623" y2="51.575" gradientUnits="userSpaceOnUse"><stop stop-color="#FAAF40"/><stop offset=".522" stop-color="#F16522"/><stop offset="1" stop-color="#E23D21"/></linearGradient><linearGradient id="paint10_linear" x1="55.473" y1="-.254" x2="25.958" y2="47.997" gradientUnits="userSpaceOnUse"><stop stop-color="#FAAF40"/><stop offset=".522" stop-color="#F16522"/><stop offset="1" stop-color="#E23D21"/></linearGradient></defs></svg>