<svg width="16" height="16" fill="none" xmlns="http://www.w3.org/2000/svg"><g clip-path="url(#clip0)" fill="#20A247"><path d="M15.511 9.242a50.765 50.765 0 0 0-.775-.456 6.749 6.749 0 0 0 0-1.572c.262-.15.523-.304.775-.456.426-.256.603-.795.413-1.255l-.555-1.34a1.018 1.018 0 0 0-1.18-.596 51.03 51.03 0 0 0-.87.225 6.75 6.75 0 0 0-1.111-1.11c.078-.292.154-.585.225-.872a1.018 1.018 0 0 0-.596-1.179l-1.34-.555c-.46-.19-1-.013-1.255.413a50.52 50.52 0 0 0-.456.775 6.751 6.751 0 0 0-1.572 0 50.22 50.22 0 0 0-.456-.775A1.018 1.018 0 0 0 5.503.076l-1.34.555c-.46.19-.716.698-.596 1.18.071.286.147.579.225.87a6.705 6.705 0 0 0-1.11 1.111 50.104 50.104 0 0 0-.872-.225 1.018 1.018 0 0 0-1.179.596l-.555 1.34c-.19.46-.013 1 .413 1.255.253.152.514.306.775.456a6.754 6.754 0 0 0 0 1.572c-.262.15-.522.304-.776.456a1.018 1.018 0 0 0-.412 1.255l.555 1.34c.19.46.697.716 1.18.596.285-.071.578-.147.87-.225.325.412.699.785 1.111 1.11a51.21 51.21 0 0 0-.225.872c-.12.481.136.988.596 1.178l1.34.556a1.018 1.018 0 0 0 1.255-.412c.151-.252.305-.513.456-.776a6.76 6.76 0 0 0 1.572 0c.15.26.303.521.456.776a1.02 1.02 0 0 0 1.255.412l1.34-.555c.46-.19.716-.698.596-1.18-.07-.284-.146-.576-.225-.87a6.752 6.752 0 0 0 1.111-1.111c.291.078.584.154.87.225.482.12.99-.136 1.18-.596l.555-1.34c.19-.46.013-1-.412-1.255zm-1.119 2.127a48.953 48.953 0 0 1-.835-.217 1.01 1.01 0 0 0-1.062.355c-.287.369-.62.702-.99.989a1.01 1.01 0 0 0-.353 1.061c.076.281.149.562.218.835l-1.233.51a48.56 48.56 0 0 1-.436-.743 1.01 1.01 0 0 0-1.001-.5 5.673 5.673 0 0 1-1.399-.001 1.01 1.01 0 0 0-1.001.5 52.87 52.87 0 0 1-.437.745l-1.233-.51c.07-.276.142-.556.218-.836a1.01 1.01 0 0 0-.354-1.062 5.667 5.667 0 0 1-.99-.989 1.01 1.01 0 0 0-1.062-.354c-.279.076-.56.149-.834.218l-.51-1.233c.243-.146.493-.292.743-.436a1.01 1.01 0 0 0 .5-1.001 5.675 5.675 0 0 1 .002-1.4 1.01 1.01 0 0 0-.5-1.001c-.25-.145-.5-.291-.745-.438l.51-1.232c.275.07.556.142.836.217a1.01 1.01 0 0 0 1.062-.354c.287-.369.62-.702.989-.989.321-.25.46-.667.353-1.062a49.6 49.6 0 0 1-.217-.834l1.233-.51c.145.242.292.492.436.743a1.01 1.01 0 0 0 1.001.5 5.664 5.664 0 0 1 1.399.001 1.01 1.01 0 0 0 1.001-.5c.144-.251.291-.501.437-.745l1.232.51c-.069.276-.142.556-.217.836a1.01 1.01 0 0 0 .354 1.062c.37.287.703.62.99.989.25.32.666.46 1.061.353.28-.075.56-.148.835-.217l.51 1.232c-.243.146-.492.293-.743.437a1.01 1.01 0 0 0-.501 1c.058.464.058.935 0 1.4-.05.404.146.797.5 1.001.25.144.5.29.745.437l-.51 1.232z"/><path d="M5.141 9.284a3.15 3.15 0 0 0 1.716 1.715h0a3.166 3.166 0 0 0 2.427 0h0a3.174 3.174 0 0 0 1.715-4.142h0a3.174 3.174 0 0 0-4.142-1.716h0a3.174 3.174 0 0 0-1.716 4.143zm0 0l.093-.039m-.093.039s0 0 0 0l.093-.039m0 0a3.05 3.05 0 0 0 1.661 1.662M5.234 9.245l1.661 1.662m4.037-4.036l.046-.046-.002-.002-.003-.003h0a.085.085 0 0 0-.015-.01l-.017-.009a.1.1 0 0 0-.074.003l.032.073m.033-.006l-.025.024-.008-.018m.033-.006l-.033.006m.033-.006l-.033.006m-4.004 4.03a3.066 3.066 0 0 0 2.35 0 3.074 3.074 0 0 0 1.699-3.919.1.1 0 0 0 .062-.083V6.9c0-.002 0-.005-.1-.005l-4.01 4.012zm.383-4.749h0a2.073 2.073 0 0 1 2.704 1.12 2.072 2.072 0 0 1-2.704 2.704 2.072 2.072 0 0 1 0-3.824z" stroke="#20A247" stroke-width=".2"/></g><defs><clipPath id="clip0"><path fill="#fff" d="M0 0h16v16H0z"/></clipPath></defs></svg>