<svg width="16" height="16" fill="none" xmlns="http://www.w3.org/2000/svg"><g clip-path="url(#clip0)"><path d="M15.833 5.882l-4-4a.572.572 0 0 0-.976.404V4h-4a.571.571 0 1 0 0 1.143h4.572A.571.571 0 0 0 12 4.57v-.906l2.62 2.62L12 8.907V8a.571.571 0 0 0-.571-.571H5.143V5.714a.571.571 0 0 0-.976-.404l-4 4a.571.571 0 0 0 0 .808l4 4a.571.571 0 0 0 .976-.404V12h4a.571.571 0 1 0 0-1.143H4.57a.571.571 0 0 0-.57.573v.906l-2.62-2.62L4 7.093V8c0 .316.256.572.571.572h6.286v1.714a.571.571 0 0 0 .976.404l4-4a.571.571 0 0 0 0-.808z" fill="#2268F1"/></g><defs><clipPath id="clip0"><path fill="#fff" d="M0 0h16v16H0z"/></clipPath></defs></svg>