<svg width="61" height="50" fill="none" xmlns="http://www.w3.org/2000/svg"><g clip-path="url(#clip0)"><path d="M14.595 7.524c1.214 0 2.364.482 3.226 1.35l12.807 13.409a.922.922 0 0 0 1.341 0L44.041 9.614C39.538 3.891 32.576.225 24.751.225 11.146.225.096 11.318.096 25.016s11.018 24.791 24.623 24.791a24.486 24.486 0 0 0 16.608-6.463V26.141c0-.417-.48-.61-.767-.321l-7.92 9.164a1.817 1.817 0 0 1-2.747 0l-7.888-9.164a.445.445 0 0 0-.767.322V43.89c-4.918 0-8.942-3.312-8.942-8.264V9.839a2.298 2.298 0 0 1 2.3-2.315z" fill="url(#paint0_linear)"/><path d="M53.815 31.03h-5.813c-.767 0-1.405.61-1.405 1.382v5.852c0 .772.606 1.415 1.405 1.415h5.813c.766 0 1.405-.611 1.405-1.415v-5.852c0-.772-.639-1.383-1.405-1.383z" fill="url(#paint1_linear)"/><path d="M49.407 23.89h4.024a1.25 1.25 0 0 0 1.245-1.253v-4.052c0-.707-.575-1.254-1.245-1.254h-4.024c-.703 0-1.246.579-1.246 1.254v4.052a1.25 1.25 0 0 0 1.246 1.253z" fill="url(#paint2_linear)"/><path d="M59.404 24.63h-3.29a.896.896 0 0 0-.894.9v3.313c0 .482.383.9.894.9h3.29a.896.896 0 0 0 .894-.9V25.53c0-.483-.415-.9-.895-.9z" fill="url(#paint3_linear)"/><path d="M55.315 16.013h2.364c.383 0 .67-.321.67-.675v-2.38a.677.677 0 0 0-.67-.675h-2.364a.677.677 0 0 0-.67.675v2.38c0 .354.287.675.67.675z" fill="url(#paint4_linear)"/><path d="M31.265 36.753c-.096 0-.16-.032-.255-.032a36.532 36.532 0 0 1 2.459 10.225 23.86 23.86 0 0 0 6.707-4.148V28.007L33.5 35.756c-.543.643-1.373.997-2.236.997z" fill="url(#paint5_linear)"/><path d="M24.75 1.35c-9.07 0-16.926 5.177-20.854 12.766a34.477 34.477 0 0 1 7.25 2.218V9.84c0-1.897 1.532-3.472 3.448-3.472 1.502 0 2.97.61 4.025 1.704l12.647 13.28 11.242-11.77C38.035 4.341 31.617 1.351 24.75 1.351z" fill="url(#paint6_linear)"/><path d="M53.814 31.769H48a.643.643 0 0 0-.639.643v5.852c0 .353.288.643.639.643h5.813c.35 0 .638-.29.638-.643v-5.852c.032-.354-.287-.643-.638-.643z" fill="url(#paint7_linear)"/><path d="M49.406 23.151h4.024a.506.506 0 0 0 .51-.514v-4.052a.506.506 0 0 0-.51-.514h-4.024a.506.506 0 0 0-.511.514v4.052c0 .257.223.514.51.514z" fill="url(#paint8_linear)"/><path d="M59.403 25.402h-3.29c-.064 0-.128.065-.128.129v3.312c0 .064.064.128.128.128h3.29c.064 0 .127-.064.127-.128V25.53c0-.064-.032-.129-.127-.129z" fill="url(#paint9_linear)"/><path d="M57.614 12.926h-2.3v2.315h2.3v-2.315z" fill="url(#paint10_linear)"/></g><defs><linearGradient id="paint0_linear" x1="344.394" y1="-258.451" x2="-183.386" y2="106.056" gradientUnits="userSpaceOnUse"><stop stop-color="#F7D5A3"/></linearGradient><linearGradient id="paint1_linear" x1="114.155" y1="-14.096" x2="18.763" y2="60.008" gradientUnits="userSpaceOnUse"><stop stop-color="#F7D5A3"/></linearGradient><linearGradient id="paint2_linear" x1="99.205" y1="-16.891" x2="26.93" y2="39.047" gradientUnits="userSpaceOnUse"><stop stop-color="#F7D5A3"/></linearGradient><linearGradient id="paint3_linear" x1="95.004" y1="-2.042" x2="38.672" y2="41.556" gradientUnits="userSpaceOnUse"><stop stop-color="#F7D5A3"/></linearGradient><linearGradient id="paint4_linear" x1="83.67" y1="-7.176" x2="42.572" y2="24.632" gradientUnits="userSpaceOnUse"><stop stop-color="#F7D5A3"/></linearGradient><linearGradient id="paint5_linear" x1="60.616" y1="-48.328" x2="-38.597" y2="31.379" gradientUnits="userSpaceOnUse"><stop stop-color="#fff"/></linearGradient><linearGradient id="paint6_linear" x1="128.614" y1="-79.261" x2="67.597" y2="116.285" gradientUnits="userSpaceOnUse"><stop stop-color="#fff"/></linearGradient><linearGradient id="paint7_linear" x1="70.271" y1="2.997" x2="36.316" y2="58.998" gradientUnits="userSpaceOnUse"><stop stop-color="#fff"/></linearGradient><linearGradient id="paint8_linear" x1="65.194" y1="-2.406" x2="41.024" y2="37.444" gradientUnits="userSpaceOnUse"><stop stop-color="#fff"/></linearGradient><linearGradient id="paint9_linear" x1="67.436" y1="11.017" x2="50.456" y2="39.012" gradientUnits="userSpaceOnUse"><stop stop-color="#fff"/></linearGradient><linearGradient id="paint10_linear" x1="62.742" y1="3.595" x2="51.728" y2="21.754" gradientUnits="userSpaceOnUse"><stop stop-color="#fff"/></linearGradient><clipPath id="clip0"><path fill="#fff" d="M0 0h61v50H0z"/></clipPath></defs></svg>