<svg width="24" height="26" fill="none" xmlns="http://www.w3.org/2000/svg"><path d="M12 6.71c-3.407 0-6.155 2.806-6.155 6.285 0 3.478 2.748 6.283 6.155 6.283s6.155-2.805 6.155-6.283c0-3.479-2.748-6.284-6.155-6.284zm0 10.37c-2.202 0-4.002-1.832-4.002-4.085 0-2.254 1.795-4.086 4.002-4.086s4.002 1.832 4.002 4.085c0 2.254-1.8 4.086-4.002 4.086zm7.843-10.626c0 .815-.643 1.466-1.436 1.466-.798 0-1.436-.657-1.436-1.466 0-.81.643-1.466 1.436-1.466.793 0 1.436.657 1.436 1.466zM23.92 7.94c-.091-1.963-.53-3.702-1.94-5.135-1.403-1.433-3.107-1.881-5.03-1.98-1.982-.114-7.923-.114-9.905 0-1.918.094-3.622.542-5.03 1.975C.604 4.234.171 5.973.074 7.936c-.112 2.023-.112 8.088 0 10.112.091 1.963.53 3.702 1.94 5.135 1.408 1.433 3.107 1.881 5.03 1.98 1.982.114 7.923.114 9.905 0 1.923-.093 3.627-.542 5.03-1.98 1.404-1.433 1.843-3.172 1.94-5.135.112-2.024.112-8.083 0-10.107zm-2.561 12.28a4.094 4.094 0 0 1-2.282 2.33c-1.58.64-5.33.492-7.077.492-1.746 0-5.502.142-7.077-.493a4.094 4.094 0 0 1-2.282-2.33c-.627-1.613-.482-5.44-.482-7.223 0-1.783-.14-5.617.482-7.225a4.095 4.095 0 0 1 2.282-2.33c1.58-.64 5.33-.492 7.077-.492 1.746 0 5.502-.142 7.077.493a4.094 4.094 0 0 1 2.282 2.33c.627 1.613.482 5.44.482 7.224 0 1.782.145 5.616-.482 7.224z" fill="#F75539"/></svg>