<svg width="61" height="50" fill="none" xmlns="http://www.w3.org/2000/svg"><path d="M14.595 7.524c1.214 0 2.364.482 3.226 1.35l12.807 13.409a.922.922 0 0 0 1.341 0L44.041 9.614C39.538 3.891 32.576.224 24.751.224 11.146.225.096 11.319.096 25.017c0 13.698 11.018 24.79 24.623 24.79a24.486 24.486 0 0 0 16.608-6.462V26.14c0-.418-.48-.61-.767-.321l-7.92 9.164a1.817 1.817 0 0 1-2.747 0l-7.888-9.164a.445.445 0 0 0-.767.321v17.75c-4.918 0-8.942-3.312-8.942-8.264V9.839a2.298 2.298 0 0 1 2.3-2.315z" fill="url(#paint0_linear)"/><path d="M53.815 31.029h-5.813c-.767 0-1.405.61-1.405 1.383v5.852c0 .771.606 1.414 1.405 1.414h5.813c.766 0 1.405-.61 1.405-1.414v-5.852c0-.772-.639-1.383-1.405-1.383z" fill="url(#paint1_linear)"/><path d="M49.407 23.89h4.024a1.25 1.25 0 0 0 1.245-1.254v-4.051c0-.707-.575-1.254-1.245-1.254h-4.024c-.703 0-1.246.579-1.246 1.254v4.051c0 .676.543 1.254 1.246 1.254z" fill="url(#paint2_linear)"/><path d="M59.404 24.63h-3.29a.896.896 0 0 0-.894.9v3.312c0 .483.383.9.894.9h3.29a.895.895 0 0 0 .894-.9v-3.311c0-.483-.415-.9-.895-.9z" fill="url(#paint3_linear)"/><path d="M55.315 16.013h2.364c.383 0 .67-.322.67-.676v-2.379a.677.677 0 0 0-.67-.675h-2.364a.677.677 0 0 0-.67.675v2.38c0 .353.287.675.67.675z" fill="url(#paint4_linear)"/><path d="M31.266 36.752c-.096 0-.16-.032-.256-.032a36.539 36.539 0 0 1 2.46 10.225 23.863 23.863 0 0 0 6.706-4.148v-14.79l-6.675 7.748c-.543.644-1.373.997-2.235.997z" fill="url(#paint5_linear)"/><path d="M24.751 1.35c-9.07 0-16.927 5.177-20.855 12.766a34.477 34.477 0 0 1 7.25 2.218V9.84c0-1.897 1.533-3.473 3.449-3.473a5.61 5.61 0 0 1 4.024 1.705l12.647 13.28L42.508 9.58c-4.471-5.24-10.89-8.23-17.757-8.23z" fill="url(#paint6_linear)"/><path d="M53.814 31.768h-5.813a.643.643 0 0 0-.638.643v5.852c0 .354.287.644.639.644h5.812c.351 0 .639-.29.639-.643V32.41c.032-.353-.288-.643-.639-.643z" fill="url(#paint7_linear)"/><path d="M49.406 23.151h4.024a.506.506 0 0 0 .511-.514v-4.052a.506.506 0 0 0-.51-.514h-4.025a.506.506 0 0 0-.511.514v4.052c0 .257.224.514.511.514z" fill="url(#paint8_linear)"/><path d="M59.403 25.402h-3.29c-.063 0-.127.064-.127.128v3.312c0 .065.064.129.128.129h3.29c.063 0 .127-.064.127-.129v-3.311c0-.065-.032-.13-.128-.13z" fill="url(#paint9_linear)"/><path d="M57.614 12.926h-2.3v2.315h2.3v-2.315z" fill="url(#paint10_linear)"/><defs><linearGradient id="paint0_linear" x1="91.184" y1="-27.113" x2="18.909" y2="28.825" gradientUnits="userSpaceOnUse"><stop stop-color="#FAAF40"/><stop offset=".522" stop-color="#F16522"/><stop offset="1" stop-color="#E23D21"/></linearGradient><linearGradient id="paint1_linear" x1="106.054" y1="-7.9" x2="33.779" y2="48.038" gradientUnits="userSpaceOnUse"><stop stop-color="#FAAF40"/><stop offset=".522" stop-color="#F16522"/><stop offset="1" stop-color="#E23D21"/></linearGradient><linearGradient id="paint2_linear" x1="99.205" y1="-16.891" x2="26.93" y2="39.047" gradientUnits="userSpaceOnUse"><stop stop-color="#FAAF40"/><stop offset=".522" stop-color="#F16522"/><stop offset="1" stop-color="#E23D21"/></linearGradient><linearGradient id="paint3_linear" x1="104.469" y1="-9.449" x2="32.194" y2="46.489" gradientUnits="userSpaceOnUse"><stop stop-color="#FAAF40"/><stop offset=".522" stop-color="#F16522"/><stop offset="1" stop-color="#E23D21"/></linearGradient><linearGradient id="paint4_linear" x1="97.938" y1="-18.387" x2="25.663" y2="37.552" gradientUnits="userSpaceOnUse"><stop stop-color="#FAAF40"/><stop offset=".522" stop-color="#F16522"/><stop offset="1" stop-color="#E23D21"/></linearGradient><linearGradient id="paint5_linear" x1="60.983" y1="-2.634" x2="27.029" y2="53.367" gradientUnits="userSpaceOnUse"><stop stop-color="#FAAF40"/><stop offset=".522" stop-color="#F16522"/><stop offset="1" stop-color="#E23D21"/></linearGradient><linearGradient id="paint6_linear" x1="39.593" y1="-15.604" x2="5.638" y2="40.397" gradientUnits="userSpaceOnUse"><stop stop-color="#FAAF40"/><stop offset=".522" stop-color="#F16522"/><stop offset="1" stop-color="#E23D21"/></linearGradient><linearGradient id="paint7_linear" x1="70.271" y1="2.997" x2="36.316" y2="58.998" gradientUnits="userSpaceOnUse"><stop stop-color="#FAAF40"/><stop offset=".522" stop-color="#F16522"/><stop offset="1" stop-color="#E23D21"/></linearGradient><linearGradient id="paint8_linear" x1="64.072" y1="-.562" x2="30.117" y2="55.438" gradientUnits="userSpaceOnUse"><stop stop-color="#FAAF40"/><stop offset=".522" stop-color="#F16522"/><stop offset="1" stop-color="#E23D21"/></linearGradient><linearGradient id="paint9_linear" x1="71.49" y1="4.236" x2="37.535" y2="60.237" gradientUnits="userSpaceOnUse"><stop stop-color="#FAAF40"/><stop offset=".522" stop-color="#F16522"/><stop offset="1" stop-color="#E23D21"/></linearGradient><linearGradient id="paint10_linear" x1="65.075" y1="-.296" x2="30.894" y2="56.079" gradientUnits="userSpaceOnUse"><stop stop-color="#FAAF40"/><stop offset=".522" stop-color="#F16522"/><stop offset="1" stop-color="#E23D21"/></linearGradient></defs></svg>