<svg width="49" height="49" fill="none" xmlns="http://www.w3.org/2000/svg"><circle cx="24.5" cy="24.5" r="24.5" fill="#fff"/><path d="M23.995 25.651a5.205 5.205 0 0 1-2.533-.705l-7.733 6.206a2.69 2.69 0 0 0 1.342.355h17.858c.475 0 .941-.123 1.343-.355l-7.77-6.2a5.111 5.111 0 0 1-2.507.699zm-3.583-1.401l-7.397-5.935a2.2 2.2 0 0 0-.49 1.374v9.48c0 .494.172.975.49 1.374l7.63-6.122c-.078-.057-.156-.11-.233-.171z" fill="#F75539"/><path d="M13.729 17.705l7.316 5.87c2.047 1.602 3.859 1.603 5.87 0l7.359-5.87a2.694 2.694 0 0 0-1.344-.355H15.07c-.474 0-.94.123-1.341.355zm13.821 6.542c-.078.062-.157.117-.235.175l7.67 6.12a2.2 2.2 0 0 0 .49-1.373v-9.48a2.2 2.2 0 0 0-.489-1.373l-7.436 5.93z" fill="#F75539"/></svg>