<svg width="40" height="40" fill="none" xmlns="http://www.w3.org/2000/svg"><circle cx="20" cy="20" r="20" fill="#F75539"/><path d="M17.504 23.316v-.867c0-.75.16-1.402.48-1.957.32-.555.907-1.144 1.758-1.77.82-.585 1.36-1.062 1.617-1.429a2.05 2.05 0 0 0 .399-1.23c0-.508-.188-.895-.563-1.16-.375-.266-.898-.4-1.57-.4-1.172 0-2.508.384-4.008 1.15l-1.277-2.567c1.742-.977 3.59-1.465 5.543-1.465 1.61 0 2.887.387 3.832 1.16.953.774 1.43 1.805 1.43 3.094 0 .86-.196 1.602-.586 2.227-.391.625-1.133 1.328-2.227 2.109-.75.555-1.227.977-1.43 1.266-.195.289-.293.668-.293 1.136v.703h-3.105zm-.375 4.008c0-.656.176-1.152.527-1.488.352-.336.864-.504 1.535-.504.649 0 1.149.172 1.5.516.36.343.54.836.54 1.476 0 .617-.18 1.106-.54 1.465-.359.352-.859.527-1.5.527-.656 0-1.164-.171-1.523-.515-.36-.352-.54-.844-.54-1.477z" fill="#fff"/></svg>