<svg width="114" height="112" fill="none" xmlns="http://www.w3.org/2000/svg"><circle cx="50" cy="62" r="50" fill="url(#paint0_linear)"/><path d="M73.25 61.8c0-8.386-4.184-15.779-10.504-20.078 4.185-2.328 7.311-3.02 8.458-1.834.696.719.723 2.283.076 4.403a.78.78 0 0 0 .49.972.72.72 0 0 0 .226.037.754.754 0 0 0 .715-.543c.846-2.777.696-4.784-.447-5.964-2.25-2.327-7.154-.247-10.996 2.002A22.519 22.519 0 0 0 50 37.775c-12.82 0-23.25 10.778-23.25 24.025a24.5 24.5 0 0 0 2.922 11.644c-2.176 3.97-4.189 9.038-1.937 11.363.675.699 1.61 1.016 2.748 1.016 2.159 0 5.044-1.157 8.233-3.027A22.526 22.526 0 0 0 50 85.825h.002c12.82 0 23.249-10.778 23.249-24.025zm-44.981.775h9a27.937 27.937 0 0 0 2.513 10.826c-3.33 1.19-5.01 2.784-5.732 3.658-3.438-3.834-5.597-8.903-5.781-14.484zm5.78-16.034c.723.873 2.404 2.467 5.733 3.658-1.396 3.08-2.4 6.7-2.513 10.826h-9c.184-5.58 2.343-10.65 5.78-14.484zm30.84-1.102c-.503.646-2 2.215-5.362 3.371-2.303-4.457-5.314-7.625-7.232-9.359 4.848.528 9.223 2.711 12.594 5.988zm6.842 15.586h-3.458c-.989-3.15-3.439-5.62-6.521-6.56a29.066 29.066 0 0 0-1.548-4.261c3.339-1.191 5.024-2.788 5.746-3.662 3.437 3.833 5.597 8.902 5.781 14.483zm-20.67 12.414c2.834.071 5.13.427 6.981.918-2.415 4.522-5.6 7.639-7.292 9.102v-9.74l.312-.28zm1.598-1.479l.105-.099c.047.04.096.077.143.116l-.248-.017zm-1.91-.3v-2.19c.282.461.597.897.945 1.304-.316.3-.631.596-.944.885zm-1.5.225c-3.265.056-5.891.465-7.984 1.048-1.376-2.95-2.377-6.422-2.496-10.358h10.48v9.31zm1.5-31.746c1.692 1.464 4.875 4.585 7.295 9.117-1.915.502-4.314.858-7.294.91V40.14zm-1.5 10.026c-2.964-.053-5.356-.412-7.271-.918 2.419-4.52 5.586-7.639 7.272-9.104v10.022zm0 1.55v9.31H38.77c.119-3.933 1.122-7.405 2.5-10.356 2.093.58 4.718.99 7.98 1.046zm1.5 0c3.274-.056 5.905-.467 8-1.052a27.377 27.377 0 0 1 1.335 3.453A9.647 9.647 0 0 0 59 54.05c-3.475 0-6.523 1.894-8.25 4.73v-7.065zm-10.286-2.928c-3.317-1.156-4.833-2.709-5.348-3.352 3.37-3.274 7.741-5.454 12.586-5.983-1.923 1.732-4.937 4.889-7.238 9.335zm-.008 26.009a31.88 31.88 0 0 0 2.172 3.594 57.957 57.957 0 0 1-3.91 2.618 21.968 21.968 0 0 1-3.605-2.846c.501-.646 1.995-2.21 5.343-3.366zm1.51-.454c1.812-.474 4.052-.819 6.81-.898a88.478 88.478 0 0 1-4.896 4.016c-.661-.95-1.31-1.99-1.913-3.118zm7.285.7v8.417a33.051 33.051 0 0 1-4.475-4.776 92.097 92.097 0 0 0 4.475-3.64zm10.258-.239c3.338 1.156 4.86 2.716 5.376 3.363-3.37 3.276-7.748 5.458-12.597 5.984 1.908-1.727 4.906-4.885 7.221-9.347zm1.914-.924a9.582 9.582 0 0 0 3.222-1.547.791.791 0 0 0 .175-1.082.734.734 0 0 0-1.046-.181A8.009 8.009 0 0 1 59 72.65c-4.549 0-8.25-3.825-8.25-8.525S54.45 55.6 59 55.6c4.549 0 8.25 3.825 8.25 8.525a8.66 8.66 0 0 1-1.53 4.934.792.792 0 0 0 .175 1.08.736.736 0 0 0 1.046-.18 10.237 10.237 0 0 0 1.809-5.834c0-.529-.052-1.043-.128-1.55h3.11c-.185 5.58-2.345 10.65-5.782 14.484-.63-.761-1.987-2.069-4.528-3.18zm-32.626 9.833c-1.15-1.188-.48-4.417 1.774-8.74a23.84 23.84 0 0 0 6.67 6.897c-4.278 2.37-7.333 2.99-8.444 1.843zm14.73-4.096a34.143 34.143 0 0 0 4.175 4.533 21.045 21.045 0 0 1-7.471-2.279 63.391 63.391 0 0 0 3.297-2.254z" fill="#fff"/><path d="M59 60.25c.827 0 1.5.695 1.5 1.55 0 .428.335.775.75.775s.75-.347.75-.775c0-1.44-.96-2.643-2.25-2.99v-.885a.763.763 0 0 0-.75-.775.763.763 0 0 0-.75.775v.885c-1.29.346-2.25 1.55-2.25 2.99 0 1.71 1.346 3.1 3 3.1.827 0 1.5.695 1.5 1.55 0 .855-.673 1.55-1.5 1.55s-1.5-.695-1.5-1.55a.763.763 0 0 0-.75-.775.763.763 0 0 0-.75.775c0 1.44.96 2.644 2.25 2.99v.885c0 .428.335.775.75.775s.75-.347.75-.775v-.885c1.29-.346 2.25-1.55 2.25-2.99 0-1.71-1.346-3.1-3-3.1-.827 0-1.5-.695-1.5-1.55 0-.855.673-1.55 1.5-1.55zm6 4.65c.414 0 .75-.347.75-.775a.763.763 0 0 0-.75-.775.763.763 0 0 0-.75.775c0 .428.336.775.75.775zm-12 0c.414 0 .75-.347.75-.775a.763.763 0 0 0-.75-.775.763.763 0 0 0-.75.775c0 .428.336.775.75.775zm18-17.05c.414 0 .75-.347.75-.775A.763.763 0 0 0 71 46.3a.763.763 0 0 0-.75.775c0 .428.336.775.75.775z" fill="#fff"/><circle cx="95" cy="19" r="17.5" fill="url(#paint1_linear)" stroke="#fff" stroke-width="3"/><path d="M99.157 15.937c0 .796-.243 1.482-.73 2.056-.486.569-1.189.982-2.109 1.24v.052c2.145.27 3.217 1.283 3.217 3.041 0 1.195-.474 2.136-1.424 2.822-.943.685-2.255 1.028-3.937 1.028-.692 0-1.333-.05-1.925-.15a9.972 9.972 0 0 1-1.907-.545V22.6a7.812 7.812 0 0 0 1.714.641 7.254 7.254 0 0 0 1.617.202c.762 0 1.315-.105 1.661-.316.352-.217.527-.554.527-1.01 0-.352-.09-.622-.272-.81-.182-.193-.475-.336-.879-.43-.404-.1-.932-.15-1.582-.15h-.791v-2.61h.808c1.764 0 2.646-.451 2.646-1.353 0-.34-.132-.592-.395-.756-.258-.164-.607-.246-1.046-.246-.82 0-1.67.275-2.55.826l-1.44-2.32a7.013 7.013 0 0 1 2.082-1.002c.715-.2 1.533-.3 2.453-.3 1.33 0 2.373.264 3.128.792.756.527 1.134 1.254 1.134 2.18z" fill="#fff"/><defs><linearGradient id="paint0_linear" x1="19.5" y1="22.5" x2="75" y2="104" gradientUnits="userSpaceOnUse"><stop stop-color="#F75539"/><stop offset="1" stop-color="#EF9B51"/></linearGradient><linearGradient id="paint1_linear" x1="85" y1="6.5" x2="103" y2="32.5" gradientUnits="userSpaceOnUse"><stop stop-color="#F75539"/><stop offset="1" stop-color="#EF9B51"/></linearGradient></defs></svg>