<svg width="147" height="202" fill="none" xmlns="http://www.w3.org/2000/svg"><path d="M43.213 122.414v-12.598c0-9.57 1.953-17.627 5.86-24.17 3.905-6.64 10.84-13.085 20.8-19.335 7.91-4.98 13.574-9.473 16.992-13.477 3.516-4.004 5.274-8.594 5.274-13.77 0-4.101-1.856-7.324-5.567-9.668-3.71-2.44-8.545-3.662-14.502-3.662-14.746 0-31.982 5.225-51.709 15.674L0 1.564c24.316-13.867 49.707-20.8 76.172-20.8 21.777 0 38.867 4.785 51.269 14.355 12.403 9.57 18.604 22.608 18.604 39.111 0 11.817-2.783 22.07-8.35 30.762-5.468 8.594-14.257 16.748-26.367 24.463-10.254 6.64-16.7 11.524-19.336 14.649-2.539 3.027-3.808 6.64-3.808 10.839v7.471H43.213zm-6.299 51.27c0-8.985 2.588-15.918 7.764-20.801 5.273-4.883 12.988-7.324 23.144-7.324 9.766 0 17.237 2.49 22.412 7.47 5.274 4.883 7.91 11.768 7.91 20.655 0 8.886-2.734 15.771-8.203 20.654-5.37 4.883-12.744 7.324-22.119 7.324-9.668 0-17.236-2.392-22.705-7.178-5.469-4.882-8.203-11.816-8.203-20.8z" fill="#fff" fill-opacity=".15"/></svg>