<svg width="80" height="79" fill="none" xmlns="http://www.w3.org/2000/svg"><g clip-path="url(#clip0)"><circle cx="40.469" cy="39.5" r="39.5" fill="url(#paint0_linear)"/><g clip-path="url(#clip1)"><path d="M60.45 34.623a.714.714 0 0 0-.229-.434L48.817 23.66a.737.737 0 0 0-.823-.127.727.727 0 0 0-.32.292.707.707 0 0 0-.091.419l.426 5.609-8.034-.015a.745.745 0 0 0-.525.206.717.717 0 0 0-.219.512.706.706 0 0 0 .219.512.734.734 0 0 0 .525.206l8.812.015a.743.743 0 0 0 .534-.226.716.716 0 0 0 .198-.537l-.336-4.562 9.513 8.78-8.949 9.288.077-3.964a.705.705 0 0 0-.215-.523.735.735 0 0 0-.532-.21l-17.228.195-.427-5.699a.71.71 0 0 0-.144-.388.745.745 0 0 0-1.121-.06L19.683 44.27a.717.717 0 0 0-.2.515.705.705 0 0 0 .23.502l11.404 10.53a.738.738 0 0 0 .796.117.727.727 0 0 0 .314-.273.708.708 0 0 0 .11-.398l-.152-5.384 8.354-.254a.745.745 0 0 0 .514-.22.716.716 0 0 0 .205-.513.706.706 0 0 0-.226-.504.736.736 0 0 0-.523-.2l-9.102.27a.738.738 0 0 0-.503.226.71.71 0 0 0-.198.507l.137 4.412-9.604-8.87 8.842-9.183.35 4.772a.713.713 0 0 0 .241.474.74.74 0 0 0 .507.184l17.166-.195-.107 5.086a.708.708 0 0 0 .12.41.745.745 0 0 0 1.146.098l10.748-11.173a.715.715 0 0 0 .198-.583z" fill="#fff"/></g></g><defs><linearGradient id="paint0_linear" x1="16.969" y1="8.5" x2="59.969" y2="73.5" gradientUnits="userSpaceOnUse"><stop stop-color="#F75539"/><stop offset="1" stop-color="#EF9B51"/></linearGradient><clipPath id="clip0"><path fill="#fff" transform="translate(.969)" d="M0 0h79v79H0z"/></clipPath><clipPath id="clip1"><path fill="#fff" transform="translate(18.969 23)" d="M0 0h42v33H0z"/></clipPath></defs></svg>