<svg width="80" height="79" fill="none" xmlns="http://www.w3.org/2000/svg"><g clip-path="url(#clip0)"><circle cx="40.469" cy="39.5" r="39.5" fill="url(#paint0_linear)"/><g clip-path="url(#clip1)" fill="#fff"><path d="M57.487 46.965a2.18 2.18 0 0 0-1.805-.499l-13.44 2.393-3.817-3.909a.667.667 0 0 0-.48-.203H31.17a.686.686 0 0 0-.678-.694h-7.454v1.388h4.066v9.715h-4.066v1.388h7.454c.375 0 .678-.31.678-.694h1.873l7.245 3.71a2.166 2.166 0 0 0 2.107-.07l14.784-8.83a2.289 2.289 0 0 0 1.098-1.96c0-.67-.288-1.303-.789-1.735zm-27.673 8.191h-1.355v-9.715h1.355v9.715zm26.68-5.695l-14.783 8.83a.84.84 0 0 1-.817.027l-7.388-3.782a.663.663 0 0 0-.304-.074H31.17v-8.327h6.496l5.34 5.467c.233.24.362.559.362.897 0 .7-.555 1.27-1.239 1.27-.325 0-.645-.136-.876-.373l-3.505-3.588-.958.981 3.505 3.589c.49.502 1.14.778 1.834.778 1.43 0 2.594-1.191 2.594-2.657 0-.71-.27-1.376-.76-1.878l-.547-.562 12.499-2.226a.842.842 0 0 1 .7.194.889.889 0 0 1 .307.673.889.889 0 0 1-.427.761zm-10.24-21.14l-6.777 7.633 1.003.934 6.777-7.633-1.003-.934zm-5.598 4.282c1.12 0 2.033-.934 2.033-2.082 0-1.147-.912-2.081-2.033-2.081-1.12 0-2.033.934-2.033 2.081 0 1.148.912 2.082 2.033 2.082zm0-2.775c.374 0 .678.311.678.694a.687.687 0 0 1-.678.693.687.687 0 0 1-.678-.694c0-.382.304-.693.678-.693zm3.389 4.857c0 1.148.912 2.082 2.033 2.082 1.12 0 2.033-.934 2.033-2.082 0-1.148-.912-2.082-2.033-2.082-1.12 0-2.033.934-2.033 2.082zm2.71 0a.687.687 0 0 1-.677.694.687.687 0 0 1-.678-.694c0-.382.304-.694.678-.694.374 0 .678.312.678.694z"/><path d="M42.875 47.306a.673.673 0 0 0 .492.217.673.673 0 0 0 .492-.217l10.747-11.594c3.078-3.321 3.078-8.725 0-12.045-1.503-1.621-3.503-2.514-5.632-2.514-2.118 0-4.108.883-5.607 2.487-1.499-1.604-3.488-2.487-5.607-2.487-2.129 0-4.129.893-5.631 2.514-3.078 3.32-3.078 8.725 0 12.045l10.746 11.594zm-9.763-22.684c1.244-1.342 2.894-2.08 4.648-2.08 1.755 0 3.405.738 4.648 2.08l.467.505a.688.688 0 0 0 .984 0l.466-.505c1.245-1.342 2.895-2.08 4.65-2.08 1.753 0 3.403.738 4.647 2.08 2.59 2.794 2.59 7.34 0 10.135L43.367 45.82 33.112 34.757c-2.59-2.794-2.59-7.34 0-10.135z"/><path d="M41.334 37.808h-1.356v1.388h1.356v-1.388zm2.711 0H42.69v1.388h1.355v-1.388zm2.711 0H45.4v1.388h1.356v-1.388z"/></g></g><defs><linearGradient id="paint0_linear" x1="12.469" y1="10.5" x2="61.469" y2="74" gradientUnits="userSpaceOnUse"><stop stop-color="#F75539"/><stop offset="1" stop-color="#EF9B51"/></linearGradient><clipPath id="clip0"><path fill="#fff" transform="translate(.969)" d="M0 0h79v79H0z"/></clipPath><clipPath id="clip1"><path fill="#fff" transform="translate(22.969 21)" d="M0 0h36v39H0z"/></clipPath></defs></svg>