<svg width="80" height="79" fill="none" xmlns="http://www.w3.org/2000/svg"><g clip-path="url(#clip0)"><circle cx="40.469" cy="39.5" r="39.5" fill="url(#paint0_linear)"/><g clip-path="url(#clip1)" fill="#fff"><path d="M39.902 24.457c9.218 0 16.718 7.689 16.718 17.139s-7.5 17.138-16.718 17.138c-9.219 0-16.718-7.688-16.718-17.138 0-9.45 7.5-17.139 16.718-17.139zm0-1.61c-10.1 0-18.288 8.395-18.288 18.749s8.188 18.748 18.288 18.748 18.287-8.394 18.287-18.748c0-10.354-8.187-18.748-18.287-18.748z"/><path d="M39.902 30.36c6.043 0 10.96 5.04 10.96 11.236 0 6.195-4.917 11.236-10.96 11.236-6.043 0-10.96-5.041-10.96-11.236 0-6.196 4.917-11.236 10.96-11.236zm0-1.62c-6.926 0-12.54 5.756-12.54 12.856s5.614 12.855 12.54 12.855c6.926 0 12.54-5.755 12.54-12.855 0-7.1-5.614-12.856-12.54-12.856zm4.281-9.629v.82h-8.562v-.82h8.562zm.095-1.704h-8.752c-.863 0-1.568.723-1.568 1.607v1.014c0 .884.705 1.607 1.568 1.607h8.752c.862 0 1.567-.723 1.567-1.607v-1.014c0-.884-.704-1.607-1.567-1.607z"/><path d="M39.902 40.524c.576 0 1.045.48 1.045 1.072 0 .59-.47 1.071-1.045 1.071-.577 0-1.045-.48-1.045-1.071s.468-1.072 1.045-1.072zm0-1.607c-1.444 0-2.613 1.2-2.613 2.679 0 1.48 1.17 2.678 2.613 2.678 1.442 0 2.612-1.199 2.612-2.678 0-1.48-1.17-2.678-2.612-2.678z"/><path d="M39.902 40.334a.972.972 0 0 1-.957-.981v-6.445c0-.54.43-.98.957-.98.526 0 .957.44.957.98v6.444c0 .54-.43.982-.957.982zm.972 1.26c0-.54.431-.981.957-.981h3.312a.97.97 0 0 1 .956.98c0 .54-.43.981-.956.981H41.83a.972.972 0 0 1-.957-.98z"/></g></g><defs><linearGradient id="paint0_linear" x1="14.969" y1="9.5" x2="60.969" y2="72.5" gradientUnits="userSpaceOnUse"><stop stop-color="#F75539"/><stop offset="1" stop-color="#EF9B51"/></linearGradient><clipPath id="clip0"><path fill="#fff" transform="translate(.969)" d="M0 0h79v79H0z"/></clipPath><clipPath id="clip1"><path fill="#fff" transform="translate(20.969 17)" d="M0 0h38v44H0z"/></clipPath></defs></svg>