<svg width="114" height="112" fill="none" xmlns="http://www.w3.org/2000/svg"><circle cx="50" cy="62" r="50" fill="url(#paint0_linear)"/><path d="M38.424 51.335h19.334c.5 0 .851-.407.851-.866s-.4-.867-.851-.867H38.424c-.5 0-.851.408-.851.867s.4.866.851.866zm0 7.951h19.334c.5 0 .851-.407.851-.866 0-.51-.4-.867-.851-.867H38.424c-.5 0-.851.408-.851.867s.4.866.851.866zm0 8.003h19.334c.5 0 .851-.408.851-.867s-.4-.866-.851-.866H38.424c-.5 0-.851.407-.851.866s.4.867.851.867zm12.923 6.218H38.424c-.5 0-.851.408-.851.866 0 .459.4.867.851.867h12.923c.5 0 .851-.408.851-.867a.852.852 0 0 0-.851-.866z" fill="#fff"/><path d="M76.24 60.663l-2.304-2.345a1.881 1.881 0 0 0-2.705 0l-4.257 4.332V40.632c0-.51-.4-.867-.851-.867H30.06c-.5 0-.851.408-.851.867v43.527c0 .51.4.867.851.867h36.013c.5 0 .851-.408.851-.867V72.793l9.266-9.429c.802-.765.802-1.988.05-2.701zM57.257 75.036l2.555 2.548-.05.051-3.406.867.901-3.466zm3.757 1.325l-2.555-2.6 11.37-11.57 2.555 2.6-11.37 11.57zm4.207 6.88h-34.26V41.55h34.31v22.834l-9.266 9.379c-.25.254-.4.51-.5.866l-.902 3.466c-.15.612 0 1.274.45 1.733.351.357.802.51 1.253.51.15 0 .3 0 .45-.051l3.406-.918c.3-.102.601-.255.852-.51l4.257-4.332v8.716h-.05zm9.767-21.1l-1.352 1.376-2.555-2.6 1.352-1.376c.05-.05.05-.05.1-.05s.1 0 .1.05l2.305 2.345c.1.05.1.204.05.255z" fill="#fff"/><circle cx="95" cy="19" r="17.5" fill="url(#paint1_linear)" stroke="#fff" stroke-width="3"/><path d="M99.588 26h-9.325v-2.285l3.137-3.173c.897-.938 1.483-1.576 1.758-1.916.276-.346.466-.642.572-.888.11-.246.166-.504.166-.773 0-.334-.108-.598-.325-.791-.216-.194-.521-.29-.914-.29-.404 0-.814.117-1.23.351-.41.229-.876.569-1.398 1.02l-1.907-2.232c.662-.592 1.219-1.014 1.67-1.266.451-.258.94-.454 1.468-.589a7.324 7.324 0 0 1 1.793-.202c.832 0 1.573.146 2.223.44.657.292 1.163.711 1.52 1.256a3.18 3.18 0 0 1 .546 1.82 4.824 4.824 0 0 1-.774 2.663c-.263.41-.615.843-1.054 1.3-.434.457-1.363 1.325-2.786 2.602v.088h4.86V26z" fill="#fff"/><defs><linearGradient id="paint0_linear" x1="19.5" y1="22" x2="76.5" y2="104" gradientUnits="userSpaceOnUse"><stop stop-color="#F75539"/><stop offset="1" stop-color="#EF9B51"/></linearGradient><linearGradient id="paint1_linear" x1="86" y1="6" x2="102.5" y2="33" gradientUnits="userSpaceOnUse"><stop stop-color="#F75539"/><stop offset="1" stop-color="#EF9B51"/></linearGradient></defs></svg>