<svg width="114" height="112" fill="none" xmlns="http://www.w3.org/2000/svg"><circle cx="50" cy="62" r="50" fill="url(#paint0_linear)"/><path fill-rule="evenodd" clip-rule="evenodd" d="M45.8 60.153c-1.89 0-1.89 3.384 0 3.384.63 0 1.102-.615 1.26-1.384h1.101v-.77H47.06c-.157-.769-.63-1.23-1.26-1.23z" fill="#fff"/><path d="M54.145 41.538h13.068v40.614H54.145v-2.154h10.863V43.692H54.145v-2.154zM52.728 38v47.69L31 81.998V41.692L52.728 38zm-2.205 2.615l-17.319 2.923v36.614l17.32 2.923v-42.46z" fill="#fff"/><circle cx="95" cy="19" r="17.5" fill="url(#paint1_linear)" stroke="#fff" stroke-width="3"/><path d="M98.006 26H94.48v-6.803c0-.826.018-1.582.053-2.267a7.621 7.621 0 0 1-.808.826l-1.46 1.204-1.801-2.215 4.412-3.595h3.129V26z" fill="#fff"/><defs><linearGradient id="paint0_linear" x1="23" y1="21" x2="75" y2="105.5" gradientUnits="userSpaceOnUse"><stop stop-color="#F75539"/><stop offset="1" stop-color="#EF9B51"/></linearGradient><linearGradient id="paint1_linear" x1="83.5" y1="7.5" x2="102" y2="33.5" gradientUnits="userSpaceOnUse"><stop stop-color="#F75539"/><stop offset="1" stop-color="#EF9B51"/></linearGradient></defs></svg>