<svg width="28" height="16" fill="none" xmlns="http://www.w3.org/2000/svg"><path d="M26.493 1.517c.18-.586 0-1.017-.865-1.017h-2.863c-.73 0-1.065.37-1.245.783 0 0-1.458 3.426-3.52 5.648-.665.642-.971.849-1.336.849-.18 0-.457-.207-.457-.793v-5.47C16.207.814 16.003.5 15.4.5h-4.5c-.457 0-.73.328-.73.633 0 .665 1.031.82 1.138 2.695v4.069c0 .89-.165 1.055-.53 1.055-.972 0-3.335-3.441-4.735-7.379C5.761.81 5.483.5 4.75.5H1.886C1.07.5.904.87.904 1.283c0 .731.973 4.364 4.526 9.164 2.367 3.276 5.702 5.053 8.735 5.053 1.823 0 2.047-.394 2.047-1.073 0-3.132-.165-3.427.748-3.427.424 0 1.153.206 2.854 1.786 1.945 1.875 2.265 2.714 3.354 2.714h2.863c.817 0 1.23-.394.992-1.172-.544-1.636-4.224-5.001-4.39-5.226-.422-.525-.3-.76 0-1.229.005-.004 3.5-4.748 3.86-6.356z" fill="#F75539"/></svg>