<?xml version="1.0" encoding="utf-8"?>
<!-- Generator: Adobe Illustrator 23.0.3, SVG Export Plug-In . SVG Version: 6.00 Build 0)  -->
<svg version="1.1" id="Слой_1" xmlns="http://www.w3.org/2000/svg" xmlns:xlink="http://www.w3.org/1999/xlink" x="0px" y="0px"
	 viewBox="0 0 72.41 76.98" style="enable-background:new 0 0 72.41 76.98;" xml:space="preserve">
<style type="text/css">
	.st0{fill:#FFFFFF;}
</style>
<path class="st0" d="M5.7,71.68c0.2,0.2,0.4,0.3,0.7,0.3h37.2h0.1l17.4,5c0.1,0,0.2,0,0.3,0c0.2,0,0.4-0.1,0.6-0.2
	c0.3-0.2,0.4-0.5,0.4-0.8v-4h4c0.3,0,0.5-0.1,0.7-0.3l5-5c0.3-0.3,0.4-0.7,0.2-1.1c-0.1-0.4-0.5-0.6-0.9-0.6h-4
	c-0.5-15.6-12.6-28.3-27.9-29.8c0.3-0.5,0.4-1.1,0.4-1.7c0-1.9-1.6-3.5-3.5-3.5s-3.5,1.6-3.5,3.5c0,0.6,0.2,1.2,0.4,1.7
	C18,36.68,5.9,49.38,5.4,64.98h-4c-0.4,0-0.8,0.2-0.9,0.6c-0.2,0.4-0.1,0.8,0.2,1.1L5.7,71.68z M60.4,74.68l-26.9-7.7h26.9V74.68z
	 M69,66.98l-3,3h-3.6v-3h4H69z M36.4,31.98c0.8,0,1.5,0.7,1.5,1.5s-0.7,1.5-1.5,1.5s-1.5-0.7-1.5-1.5S35.6,31.98,36.4,31.98z
	 M36.4,36.98c15.7,0,28.5,12.5,29,28h-4h-35h-19C7.9,49.48,20.7,36.98,36.4,36.98z M6.4,66.98h19.9l10.5,3h-30l-3-3H6.4z"/>
<path class="st0" d="M37.4,40.98c0-0.6-0.4-1-1-1c-10.3,0-19.7,6.1-23.8,15.6c-0.2,0.5,0,1.1,0.5,1.3c0.1,0.1,0.3,0.1,0.4,0.1
	c0.4,0,0.8-0.2,0.9-0.6c3.8-8.7,12.5-14.4,22-14.4C37,41.98,37.4,41.58,37.4,40.98z"/>
<path class="st0" d="M45,30.48c-0.3,0.5-0.1,1.1,0.4,1.3c0.1,0.1,0.3,0.1,0.5,0.1c0.4,0,0.7-0.2,0.9-0.5c2.8-5.4,1.3-8.4,0.1-10.9
	s-2.3-4.6,0-9.1c0.2-0.5,0-1.1-0.5-1.3c-0.5-0.2-1.1,0-1.3,0.5c-2.7,5.4-1.2,8.3,0,10.9C46.3,23.88,47.3,25.98,45,30.48z"/>
<path class="st0" d="M35,20.48c-0.3,0.5-0.1,1.1,0.4,1.3c0.1,0.1,0.3,0.1,0.5,0.1c0.4,0,0.7-0.2,0.9-0.5c2.8-5.4,1.3-8.4,0.1-10.9
	s-2.3-4.6,0-9.1c0.2-0.5,0-1.1-0.5-1.3s-1.1,0-1.3,0.5c-2.7,5.4-1.2,8.3,0,10.9C36.3,13.88,37.3,15.98,35,20.48z"/>
<path class="st0" d="M25.9,30.48c-0.3,0.5-0.1,1.1,0.4,1.3c0.1,0.1,0.3,0.1,0.5,0.1c0.4,0,0.7-0.2,0.9-0.5c2.8-5.4,1.3-8.4,0.1-10.9
	s-2.3-4.6,0-9.1c0.2-0.5,0-1.1-0.5-1.3c-0.5-0.2-1.1,0-1.3,0.5c-2.7,5.4-1.2,8.3,0,10.9C27.2,23.88,28.2,25.98,25.9,30.48z"/>
</svg>
