<?xml version="1.0" encoding="utf-8"?>
<!-- Generator: Adobe Illustrator 23.0.3, SVG Export Plug-In . SVG Version: 6.00 Build 0)  -->
<svg version="1.1" id="Слой_1" xmlns="http://www.w3.org/2000/svg" xmlns:xlink="http://www.w3.org/1999/xlink" x="0px" y="0px"
	 viewBox="0 0 433.14 277.23" style="enable-background:new 0 0 433.14 277.23;" xml:space="preserve">
<style type="text/css">
	.st0{fill:#FFFFFF;}
</style>
<path class="st0" d="M66.2,59.99c2.88-0.63,4.69-3.47,4.06-6.35c0,0,0-0.01,0-0.01c-3.41-15.51-0.6-30.51,7.34-39.16
	c6.78-7.39,16.75-2.4,23.92,3.08c4.06,3.14,9.17,4.57,14.27,4c6.11-0.7,15.51,0.85,21.87,7.48c7.11,7.42,9.39,19.58,6.79,36.16
	c-2.45,15.64-2.4,30.17,0.17,43.18c0.51,2.48,2.7,4.26,5.23,4.26c0.34,0,0.67-0.04,1-0.11c2.89-0.56,4.77-3.36,4.21-6.25
	c0,0,0-0.01,0-0.01c-2.33-11.78-2.36-25.06-0.1-39.47c3.15-20-0.09-35.24-9.62-45.19c-9.05-9.44-21.83-11.72-30.78-10.7
	c-2.35,0.26-4.72-0.41-6.59-1.86C93.09-2.37,79.15-3,69.73,7.25c-10.4,11.34-14.1,29.54-9.89,48.67
	C60.48,58.8,63.32,60.62,66.2,59.99z"/>
<path class="st0" d="M15.38,146.7c3.79,3.33,6.9,7.36,9.16,11.87c4.49,9.1,12.55,15.93,22.27,18.86c1.8,0.54,3.57,1.21,5.28,2
	c2.68,1.23,5.84,0.05,7.07-2.63s0.05-5.84-2.63-7.07l0,0c-2.16-0.99-4.38-1.83-6.65-2.51c-6.87-2.08-12.57-6.91-15.73-13.35
	c-2.87-5.74-6.82-10.87-11.63-15.12c-5.45-4.79-8.52-11.74-8.38-19v-0.9c0.17-6.84-0.52-13.67-2.06-20.34
	c-1.77-7.72-3.43-21.64,5.31-28.26c6.83-5.17,10.94-2.11,19.37,6.65c3.5,3.64,6.8,7.08,10.7,8.71c11.31,4.71,26.93-3.17,28.67-4.09
	c0.08-0.03,0.15-0.07,0.22-0.12c4.91-2.87,8-2,9.89-1.15c10,4.63,17.42,27.58,19.77,41c0.04,0.23,0.09,0.46,0.16,0.69
	c2.26,7.05,5.89,13.6,10.67,19.25c1.84,2.31,5.2,2.69,7.5,0.85c2.31-1.84,2.69-5.2,0.85-7.5c-0.05-0.07-0.11-0.13-0.16-0.19
	c-3.82-4.5-6.73-9.69-8.58-15.29c-1-5.52-7.9-40.17-25.72-48.44c-4.29-2-11.19-3.34-19.64,1.55c-3.4,1.74-13.9,6-19.53,3.64
	c-1.84-0.77-4.52-3.56-7.11-6.25c-6.89-7.17-18.44-19.18-33.5-7.77c-10,7.6-13.32,21.5-9.27,39.15c1.34,5.79,1.94,11.73,1.79,17.67
	v0.89C3.25,129.87,7.6,139.83,15.38,146.7z"/>
<path class="st0" d="M34.15,118.42c-2.87,0.65-4.67,3.51-4.01,6.38c0.65,2.87,3.51,4.67,6.39,4.01c7.2-1.64,15.86,1.19,19.07,2.39
	c11.06,14.63,29,32.77,56.9,47.53c2.6,1.38,5.83,0.39,7.21-2.21s0.39-5.83-2.21-7.21l0,0c-13.83-7.27-26.58-16.44-37.87-27.25
	c-0.91-5-1.92-15.39,1.09-22.6c1.14-2.72-0.14-5.84-2.86-6.98s-5.84,0.14-6.98,2.86l0,0c-1.78,4.55-2.73,9.38-2.8,14.27
	c-12.5-15.07-17.39-27-17.67-27.78c-0.79-2.84-3.73-4.49-6.57-3.71s-4.49,3.73-3.71,6.57l0,0c1.8,4.64,4.01,9.11,6.61,13.35
	C42.56,117.43,38.3,117.56,34.15,118.42z"/>
<path class="st0" d="M131.83,51.38c2.57-1.45,3.48-4.7,2.04-7.27c-1.45-2.57-4.7-3.48-7.27-2.04c-0.06,0.04-0.12,0.07-0.18,0.11
	c-3.94,2.32-6.78,6.13-8.79,9.92c-3.3-5.27-7.12-10.21-11.39-14.73c-2.16-2.01-5.54-1.89-7.55,0.27c-1.89,2.03-1.91,5.17-0.04,7.23
	c0.21,0.21,20.52,21.13,21.32,46.07c0.09,2.88,2.45,5.17,5.33,5.17h0.17c2.95-0.1,5.26-2.56,5.16-5.51
	c-0.41-9.09-2.59-18.02-6.41-26.28C125.26,60.56,127.86,53.71,131.83,51.38z"/>
<path class="st0" d="M229.15,148.29c2.6,1.38,5.84,0.39,7.22-2.21c0.52-1,5.38-9.59,13.33-5.61l0.35,0.13
	c0.12,0,0.22,0.11,0.34,0.15s6.1,3.15,8.42,17.52c0.42,2.58,2.64,4.48,5.26,4.49c0.29,0,0.58-0.02,0.86-0.07
	c2.91-0.47,4.89-3.21,4.42-6.12c-1.94-12-6.22-18.54-9.82-22.08c4.52-5.19,11.52-7.47,18.23-5.94c1.29,0.27,2.6,0.4,3.92,0.41
	c2.58,2,8.73,7.9,11.61,18.95c0.61,2.35,2.73,4,5.16,4c0.46,0,0.91-0.05,1.35-0.17c2.85-0.74,4.56-3.66,3.82-6.51
	c-1.82-7.17-5.26-13.83-10.06-19.46c5.67-1.94,13-2,20.11,5.22c10.72,10.91,10.92,31.74,10.09,43.19c-0.21,2.94,2,5.49,4.94,5.71
	h0.39c2.79,0,5.11-2.16,5.31-4.95c1.18-16.17-0.14-38.23-13.12-51.44c-9.88-10.07-22.77-12.29-35.36-6.1c-1.86,0.9-3.98,1.16-6,0.72
	c-14.52-3-24.79,4.54-30,11.12c-11.54-2.93-20,6-23,11.84C225.55,143.69,226.55,146.92,229.15,148.29z"/>
<path class="st0" d="M431.68,115.48c-0.38-7.57-4-14.42-10.9-20.35c-17.28-14.94-36.32-5.94-45.16,1.8
	c-9.75,1.61-14.79,6.33-17.34,10.12c-3.59,5.35-4.56,12.2-2.84,19.37c-2.98,1.14-6.11,1.81-9.29,2c-2.94,0.18-5.18,2.7-5,5.64
	c0.17,2.83,2.53,5.03,5.37,5.01h0.38c20.25-1.44,26.94-14.28,27.25-14.83c1.33-2.62,0.29-5.82-2.32-7.16
	c-2.18-1.11-4.83-0.59-6.44,1.26c0.14-1.9,0.76-3.74,1.8-5.34c2.1-3.14,6-5.06,11.5-5.73c1.16-0.14,2.24-0.66,3.08-1.47
	c0.68-0.65,16.77-15.83,32.07-2.6c4.55,3.93,7,8.22,7.22,12.75c0.44,7.93-5.71,14.65-5.75,14.7c-2.03,2.07-2.01,5.39,0.06,7.42
	c0.3,0.29,0.63,0.55,0.99,0.77c0.37,0.24,9,6.13,5.24,24.62c-1,4.77-2.89,7.89-5.9,9.54c-5.18,2.82-13,0.84-15.51-0.15
	c-1.24-0.48-2.63-0.48-3.87,0c-3.2,1.21-12.72,3.62-18.22,0.36c-1.73-1.07-3.03-2.7-3.71-4.61c1,0.11,1.52,0.21,1.56,0.22
	c2.91,0.5,5.67-1.44,6.17-4.35c0.49-2.8-1.31-5.49-4.08-6.12c-0.47-0.09-11.66-2.27-26.46,1.47c-2.86,0.74-4.57,3.65-3.83,6.51
	c0.61,2.34,2.71,3.99,5.13,4c0.44,0,0.88-0.05,1.31-0.16c2.99-0.76,6.04-1.29,9.11-1.58c1.69,7.76,5.95,11.79,9.39,13.82
	c3.89,2.16,8.28,3.23,12.73,3.12c4.32-0.08,8.61-0.78,12.73-2.1c4.19,1.28,14.16,3.49,22.52-1c5.91-3.19,9.72-8.86,11.33-16.84
	c3.44-17.09-1.62-27-5.75-31.85C428.89,129.68,432.07,123.13,431.68,115.48z"/>
<path class="st0" d="M346.86,155.93c0.34,0,0.67-0.03,1-0.09l19.85-3.64c2.9-0.53,4.82-3.31,4.28-6.2c-0.53-2.9-3.31-4.82-6.2-4.29
	l-19.85,3.63c-2.9,0.54-4.81,3.33-4.27,6.23c0.47,2.54,2.69,4.38,5.27,4.36H346.86z"/>
<path class="st0" d="M129.54,174.69c0.07,2.9,2.43,5.21,5.33,5.21h0.12c2.94-0.06,5.27-2.49,5.21-5.43c0-0.01,0-0.02,0-0.02
	c-0.33-15.12,6.74-29.32,13.56-35c7.62-6.35,17.91-1.59,18.32-1.4c1.47,0.72,3.2,0.72,4.67,0c0.11,0,10.59-5,18.32,1.4
	c6.71,5.59,13.74,19.58,13.56,34.51c-0.03,2.95,2.33,5.36,5.28,5.4c2.92,0.06,5.33-2.25,5.39-5.17c0-0.03,0-0.07,0-0.1
	c0.23-19.28-8.86-35.72-17.4-42.84c-10.22-8.52-22.44-5.55-27.48-3.74c-5.05-1.8-17.27-4.78-27.49,3.74
	C138.25,138.49,129.15,155.16,129.54,174.69z"/>
<path class="st0" d="M25.2,202.9c-2.98,6.3-2,13.77,2.52,19.08l1.81,2.15c7.63,9.1,18.9,14.35,30.77,14.34h11.1l23.86,24.76
	c8.64,8.92,20.53,13.97,32.95,14H287.8c12.44-0.01,24.35-5.06,33-14c1.96-2.2,1.77-5.58-0.43-7.54c-2.08-1.86-5.25-1.8-7.26,0.14
	c-6.63,6.85-15.74,10.72-25.27,10.74H128.21c-9.53-0.02-18.64-3.89-25.27-10.74l-16.72-17.36h21.73c2.95-0.13,5.23-2.62,5.1-5.57
	c-0.12-2.77-2.34-4.98-5.1-5.1H60.3c-8.72,0.01-17-3.85-22.6-10.53l-1.81-2.15c-2.57-3.06-2.18-7.63,0.88-10.2
	c1.31-1.1,2.96-1.7,4.67-1.7h333.14c4,0,7.24,3.24,7.24,7.24c0,1.7-0.6,3.35-1.7,4.66l-1.8,2.15c-5.6,6.68-13.88,10.54-22.6,10.53
	h-47.65c-2.95-0.13-5.44,2.16-5.57,5.1s2.16,5.44,5.1,5.57c0.15,0.01,0.31,0.01,0.46,0h47.65c11.87,0.01,23.14-5.24,30.77-14.34
	l1.8-2.15c6.36-7.57,5.38-18.87-2.19-25.23c-3.23-2.71-7.3-4.2-11.52-4.2H41.44C34.47,192.51,28.11,196.56,25.2,202.9z"/>
<path class="st0" d="M299.29,177.7c2.49,0,4.64-1.72,5.2-4.14c0.2-0.9,0.39-1.78,0.56-2.65c0.57-2.89-1.3-5.7-4.19-6.27
	s-5.7,1.3-6.27,4.19c-0.15,0.77-0.32,1.55-0.5,2.34c-0.66,2.87,1.13,5.73,4,6.39c0,0,0,0,0,0
	C298.49,177.65,298.89,177.7,299.29,177.7z"/>
</svg>
