<?xml version="1.0" encoding="utf-8"?>
<!-- Generator: Adobe Illustrator 23.0.3, SVG Export Plug-In . SVG Version: 6.00 Build 0)  -->
<svg version="1.1" id="Слой_1" xmlns="http://www.w3.org/2000/svg" xmlns:xlink="http://www.w3.org/1999/xlink" x="0px" y="0px"
	 viewBox="0 0 82.49 62.5" style="enable-background:new 0 0 82.49 62.5;" xml:space="preserve">
<style type="text/css">
	.st0{fill:#FFFFFF;}
</style>
<g>
	<path class="st0" d="M82.02,55.58c-0.5-0.3-1.1-0.2-1.4,0.3l-2.1,3.3H3.92l-1.7-3.4c-0.2-0.5-0.8-0.7-1.3-0.4
		c-0.5,0.2-0.7,0.8-0.4,1.3l2,4c0.2,0.3,0.5,0.6,0.9,0.6h75.7c0.3,0,0.7-0.2,0.8-0.5l2.4-3.7C82.62,56.48,82.52,55.88,82.02,55.58z"
		/>
	<path class="st0" d="M55.62,2.38c0,0,0.2,0.1,0.5,0.2c0.9,0.4,2.6,1.5,2.2,4.1c-0.2,1-0.7,1.8-1.2,2.6c-0.1,0.2-0.2,0.3-0.4,0.5
		c-1.4,1.9-3.1,4.1,0.8,8.1c0.2,0.2,0.5,0.3,0.7,0.3c0.3,0,0.5-0.1,0.7-0.3c0.4-0.4,0.4-1,0-1.4s-0.7-0.8-1-1.1
		c-1-1.4-1-2.2-0.5-3.2c0.2-0.4,0.5-0.8,0.8-1.2c0.8-1,1.7-2.2,2-3.9c0.7-4-2.4-6-4.1-6.5c-0.5-0.2-1.1,0.1-1.2,0.7
		C54.82,1.68,55.12,2.28,55.62,2.38z"/>
	<path class="st0" d="M59.22,11.88c-0.3,0.5-0.1,1.1,0.3,1.4c0.1,0,0.2,0.1,0.4,0.3c0.7,0.6,2.1,2.2,1.1,4.5
		c-0.4,0.9-1.1,1.6-1.8,2.2c-0.2,0.1-0.3,0.3-0.5,0.4c-1.9,1.5-4,3.2-1.3,8c0.2,0.3,0.5,0.5,0.9,0.5c0.2,0,0.3,0,0.5-0.1
		c0.5-0.3,0.7-0.9,0.4-1.4c-0.3-0.5-0.5-0.9-0.7-1.3c-0.7-1.6-0.4-2.4,0.4-3.2c0.3-0.3,0.7-0.6,1.1-0.9c1-0.8,2.2-1.7,2.9-3.3
		c1.7-3.7-0.7-6.4-2.2-7.4C60.12,11.18,59.52,11.38,59.22,11.88z"/>
	<path class="st0" d="M4.02,49.98c-0.1,0.6-0.1,1.2,0.2,1.9c-0.1,0.1-0.2,0.3-0.3,0.5c-0.2,0.4-0.9,1.3-0.3,2.4
		c0.8,1.5,3.9,3.3,21.1,3.3c17.1,0,20.2-1.7,21-3.3c0.6-1.1-0.1-2-0.4-2.4c-0.3-0.6-0.7-1-1-1.3c0.1-0.3,0.2-0.5,0.2-0.8
		c0.6-0.2,1.1-0.4,1.5-0.6c0.7,0.4,1.5,0.7,2.3,1l-0.9,4.6c-0.1,0.3,0,0.6,0.2,0.8c0.2,0.2,0.5,0.4,0.8,0.4h20.1
		c0.3,0,0.6-0.1,0.8-0.4c0.2-0.2,0.3-0.5,0.2-0.8l-0.9-4.5c6.1-2.3,11.9-7.3,12.3-18c0-0.3-0.1-0.5-0.3-0.7
		c-0.2-0.2-0.4-0.3-0.7-0.3h-42.8c-0.3,0-0.5,0.1-0.7,0.3s-0.3,0.5-0.3,0.7c0,1.1,0.2,2.2,0.3,3.2c-3.4-1.2-7.4-1.9-11.8-1.9
		c-13-0.1-22.5,5.7-22.5,13.7C2.12,48.48,2.42,49.48,4.02,49.98z M13.42,37.78l2.4,4.2c0.2,0.3,0.5,0.5,0.9,0.5c0.2,0,0.3,0,0.5-0.1
		c0.5-0.3,0.6-0.9,0.4-1.4l-2.2-3.9c2.1-0.6,4.4-1,6.9-1.1l2.6,4.5c0.2,0.3,0.5,0.5,0.9,0.5c0.2,0,0.3,0,0.5-0.1
		c0.5-0.3,0.6-0.9,0.4-1.4l-2-3.6l0,0c2.7,0,5.2,0.3,7.5,0.8l2.7,4.8c0.2,0.3,0.5,0.5,0.9,0.5c0.2,0,0.3,0,0.5-0.1
		c0.5-0.3,0.6-0.9,0.4-1.4l-1.8-3.1c0.7,0.2,1.4,0.5,2.1,0.8c0.4,0.2,0.8,0.3,1.2,0.5c0.5,0.2,0.9,0.5,1.3,0.7
		c3.2,1.9,5.2,4.3,5.6,7.2c0,0.3,0.1,0.7,0.1,1c0,0.1,0,0.1-0.1,0.2c-0.1,0.2-0.5,0.3-1.1,0.5h-0.1c-0.2,0-0.4,0.1-0.7,0.1
		c-0.8,0.1-1.9,0.2-3.4,0.2c-1.6,0-3.4-0.1-5.6-0.1c-2.8-0.1-5.9-0.2-9.5-0.2c-3.3,0-6.4,0.1-9.1,0.2c-1.6,0-3,0.1-4.2,0.1
		c-0.5,0-1,0-1.4,0c-1.8,0-3.2-0.1-4.1-0.2c-0.3,0-0.5-0.1-0.7-0.1c-0.6-0.1-1-0.4-1-0.5C4.12,43.38,7.72,39.78,13.42,37.78z
		 M59.92,50.38c-0.4,0-0.9,0-1.3,0l0,0c-0.8,0-1.4,0-1.4,0c-4-0.3-7.3-1.2-10.1-2.6v-0.1c0-3.7-2.1-7-5.7-9.4h36.5
		C75.22,47.38,66.92,49.98,59.92,50.38z M38.22,33.58h40.6c-0.1,1-0.2,1.9-0.4,2.7h-39.8C38.42,35.48,38.32,34.58,38.22,33.58z
		 M16.02,52.68l-3.4-2.1c1,0,2,0,3.1-0.1c1.1,0,2.3-0.1,3.5-0.1L16.02,52.68z M6.12,51.28c-0.2-0.2-0.2-0.6-0.2-0.9
		c0.6,0.1,1.4,0.1,2.3,0.2c0.2,0,0.3,0,0.5,0l0.9,0.5l1.3,0.8c-1.3,0-2.4,0-2.9,0C7.02,51.88,6.42,51.68,6.12,51.28z M22.82,50.38
		L22.82,50.38c0.6,0,1.3,0,1.9,0c0.7,0,1.3,0,2,0c0.1,0.1,0.1,0.1,0.2,0.2l2.2,1.6l-8.8-0.1L22.82,50.38z M30.22,50.38
		c1.4,0,2.7,0.1,3.9,0.1c1.1,0,2.2,0.1,3.2,0.1l-3.7,2.2L30.22,50.38z M41.92,51.28c-0.6,0.6-1.6,1-2.9,1c-0.2,0-0.4,0-0.6,0
		l2.5-1.5c0.1,0,0.1-0.1,0.1-0.1c0.5,0,0.9,0,1.3-0.1C42.32,50.78,42.12,51.08,41.92,51.28z M24.62,56.08c-3.8,0-6.9-0.1-9.4-0.2
		c-9-0.5-9.8-1.8-9.9-1.9c0-0.1,0.1-0.3,0.2-0.3l0.1-0.1c0.6,0.3,1.4,0.5,2.4,0.5s3.6,0,6.2,0.1l0,0l0,0l0,0l1.3,0.8
		c0.2-0.2,0.4-0.2,0.6-0.2s0.4-0.1,0.6-0.2l0.9-0.7l0,0l14.5,0.3l1,0.7c0.2,0.1,0.4,0.2,0.6,0.2c0.2,0,0.4,0,0.5-0.1l1.1-0.6
		c1.7,0,3,0,3.9,0c1.8,0,3.2-0.5,4.2-1.5c0.1,0.1,0.2,0.3,0.3,0.5c0,0.1,0.1,0.2,0.2,0.3c0.1,0.1,0.2,0.3,0.2,0.3
		C43.82,54.08,42.52,56.08,24.62,56.08z M67.32,54.38h-17.6l0.6-3.1c2,0.6,4.3,1,6.7,1.2c0,0,0.7,0,1.5,0l0,0c0.4,0,0.9,0,1.4,0
		c2-0.1,4.3-0.4,6.7-1.1L67.32,54.38z"/>
</g>
</svg>
