<?xml version="1.0" encoding="utf-8"?>
<!-- Generator: Adobe Illustrator 23.0.3, SVG Export Plug-In . SVG Version: 6.00 Build 0)  -->
<svg version="1.1" id="Слой_1" xmlns="http://www.w3.org/2000/svg" xmlns:xlink="http://www.w3.org/1999/xlink" x="0px" y="0px"
	 viewBox="0 0 60.4 95.2" style="enable-background:new 0 0 60.4 95.2;" xml:space="preserve">
<style type="text/css">
	.st0{fill:#FFFFFF;}
</style>
<g>
	<path class="st0" d="M18.3,22.1c0.3,0.4,0.8,0.5,1.2,0.3c0.5-0.2,0.8-0.8,0.6-1.3V21c-0.3-0.8-0.7-1.5-0.8-2.3
		c-0.2-0.8-0.3-1.5-0.3-2.3c0-1.5,0.5-3,1.2-4.6l1-2.5c0.4-0.9,0.7-2,0.7-3C22,4.1,21.4,2.1,20,0.4c-0.3-0.4-0.8-0.5-1.2-0.3
		c-0.5,0.3-0.7,0.9-0.5,1.4l0.1,0.2c0.3,0.6,0.6,1.4,0.7,2.1c0.1,0.7,0.2,1.5,0,2.2c-0.1,0.7-0.3,1.4-0.7,2.1l-1.1,2.5
		c-0.7,1.7-1.4,3.7-1.2,5.8C16.3,18.7,17.2,20.6,18.3,22.1z"/>
	<path class="st0" d="M29.5,22.1c0.3,0.4,0.8,0.5,1.2,0.3c0.5-0.2,0.8-0.8,0.6-1.3V21c-0.3-0.8-0.7-1.5-0.8-2.3
		c-0.2-0.8-0.3-1.5-0.3-2.3c0-1.5,0.5-3,1.2-4.6l1-2.5c0.4-0.9,0.7-2,0.7-3c0.1-2-0.5-4.1-1.9-5.7c-0.3-0.4-0.8-0.5-1.2-0.3
		c-0.6,0.3-0.8,0.9-0.5,1.4l0.1,0.2c0.3,0.6,0.6,1.4,0.7,2.1c0.1,0.7,0.2,1.5,0,2.2c-0.1,0.7-0.3,1.4-0.7,2.1l-1.1,2.5
		c-0.7,1.7-1.4,3.7-1.2,5.8C27.4,18.7,28.3,20.6,29.5,22.1z"/>
	<path class="st0" d="M40.6,22.1c0.3,0.4,0.8,0.5,1.2,0.3c0.5-0.2,0.8-0.8,0.6-1.3V21c-0.3-0.8-0.7-1.5-0.8-2.3
		c-0.2-0.8-0.3-1.5-0.3-2.3c0-1.5,0.5-3,1.2-4.6l1-2.5c0.4-0.9,0.7-2,0.7-3c0.1-2.2-0.5-4.2-1.9-5.9C42,0,41.5-0.1,41.1,0.1
		c-0.5,0.3-0.7,0.9-0.5,1.4l0.1,0.2c0.3,0.6,0.6,1.4,0.7,2.1c0.1,0.7,0.2,1.5,0,2.2c-0.1,0.7-0.3,1.4-0.7,2.1l-1.1,2.5
		c-0.7,1.7-1.4,3.7-1.2,5.8C38.5,18.7,39.5,20.6,40.6,22.1z"/>
	<path class="st0" d="M13.8,43.2c0.4,0,0.8-0.2,1.1-0.5l3.4-3.6c0.6-0.6,0.6-1.6-0.1-2.1c-0.6-0.6-1.6-0.6-2.1,0.1l-3.4,3.6
		c-0.6,0.6-0.6,1.6,0.1,2.1C13,43.1,13.4,43.2,13.8,43.2z"/>
	<path class="st0" d="M18.3,45c0.3,0.3,0.7,0.4,1,0.4c0.4,0,0.8-0.2,1.1-0.5l7.2-7.6c0.6-0.6,0.6-1.6-0.1-2.1
		c-0.6-0.6-1.6-0.6-2.1,0.1l-7.2,7.5C17.7,43.5,17.7,44.4,18.3,45z"/>
	<path class="st0" d="M24.8,46.1c0.3,0.3,0.7,0.4,1,0.4c0.4,0,0.8-0.2,1.1-0.5l8.2-8.6c0.6-0.6,0.6-1.6-0.1-2.1
		c-0.6-0.6-1.6-0.6-2.1,0.1L24.7,44C24.2,44.6,24.2,45.5,24.8,46.1z"/>
	<path class="st0" d="M32.8,46.1c0.3,0.3,0.7,0.4,1,0.4c0.4,0,0.8-0.2,1.1-0.5l7.2-7.5c0.6-0.6,0.6-1.6-0.1-2.1
		c-0.6-0.6-1.6-0.6-2.1,0.1L32.7,44C32.2,44.6,32.2,45.6,32.8,46.1z"/>
	<path class="st0" d="M42.1,44.4c0.3,0.3,0.7,0.4,1,0.4c0.4,0,0.8-0.2,1.1-0.5l3.5-3.6c0.6-0.6,0.6-1.6-0.1-2.1
		C47,38,46,38,45.5,38.7L42,42.3C41.5,42.8,41.5,43.8,42.1,44.4z"/>
	<path class="st0" d="M58.3,38.2h-2.1c-2.5-5.4-12.8-9.2-26-9.2s-23.6,3.8-26,9.2H2.1C1,38.2,0,39.1,0,40.3v0.1
		c0,1.1,0.9,2.1,2.1,2.1h1.3v0.7c0,10.5,6,19.5,14.8,23.9L8.4,93.2c-0.3,0.8,0.1,1.7,0.9,1.9c0.2,0.1,0.4,0.1,0.5,0.1
		c0.6,0,1.2-0.4,1.4-1l9.7-26c2.4,0.9,5,1.5,7.7,1.6v16.5c0,0.8,0.7,1.5,1.5,1.5s1.5-0.7,1.5-1.5V69.8c2.7-0.2,5.3-0.7,7.7-1.6
		l9.7,26c0.2,0.6,0.8,1,1.4,1c0.2,0,0.4,0,0.5-0.1c0.8-0.3,1.2-1.2,0.9-1.9L42.2,67C51,62.6,57,53.5,57,43.1v-0.7h1.3
		c1.1,0,2.1-0.9,2.1-2.1v-0.1C60.4,39.1,59.4,38.2,58.3,38.2z M30.2,32c13.9,0,23.6,4.6,23.6,8.7s-9.7,8.7-23.6,8.7
		S6.6,44.8,6.6,40.7S16.3,32,30.2,32z M30.2,66.9c-12,0-21.9-9-23.5-20.5c4.4,3.7,13.1,6.1,23.5,6.1c10.5,0,19.2-2.4,23.5-6.1
		C52.1,57.9,42.2,66.9,30.2,66.9z"/>
</g>
</svg>
