<?xml version="1.0" encoding="utf-8"?>
<!-- Generator: Adobe Illustrator 23.0.3, SVG Export Plug-In . SVG Version: 6.00 Build 0)  -->
<svg version="1.1" id="Layer_1" xmlns="http://www.w3.org/2000/svg" xmlns:xlink="http://www.w3.org/1999/xlink" x="0px" y="0px"
	 viewBox="0 0 14 14" style="enable-background:new 0 0 14 14;" xml:space="preserve">
<style type="text/css">
	.st0{fill-rule:evenodd;clip-rule:evenodd;fill:#FFFFFF;}
</style>
<path class="st0" d="M3.9,0h6.3C12.3,0,14,1.7,14,3.9v6.3c0,2.1-1.7,3.9-3.9,3.9H3.9C1.7,14,0,12.3,0,10.1V3.9C0,1.7,1.7,0,3.9,0z
	 M10.1,2.6c0.2-0.2,0.4-0.3,0.6-0.3c0.2,0,0.5,0.1,0.6,0.3c0.2,0.2,0.3,0.4,0.3,0.6c0,0.2-0.1,0.5-0.3,0.6c-0.2,0.2-0.4,0.3-0.6,0.3
	c-0.2,0-0.5-0.1-0.6-0.3C9.9,3.7,9.8,3.5,9.8,3.3C9.8,3,9.9,2.8,10.1,2.6z M3.4,7C3.4,5,5,3.4,7,3.4c2,0,3.6,1.6,3.6,3.6
	c0,2-1.6,3.6-3.6,3.6C5,10.6,3.4,9,3.4,7z M4.6,7c0,1.3,1.1,2.4,2.4,2.4c1.3,0,2.4-1.1,2.4-2.4c0-1.3-1.1-2.4-2.4-2.4
	C5.7,4.6,4.6,5.7,4.6,7z"/>
</svg>
