<?xml version="1.0" encoding="utf-8"?>
<!-- Generator: Adobe Illustrator 23.0.3, SVG Export Plug-In . SVG Version: 6.00 Build 0)  -->
<svg version="1.1" id="Layer_1" xmlns="http://www.w3.org/2000/svg" xmlns:xlink="http://www.w3.org/1999/xlink" x="0px" y="0px"
	 viewBox="0 0 512 512" style="enable-background:new 0 0 512 512;" xml:space="preserve">
<style type="text/css">
	.st0{fill:#FFFFFF;}
</style>
<path class="st0" d="M511.9,245.6c-1.5-67-29-129.4-77.4-175.8C386.3,23.6,322.8-1.2,256,0C189.1-1.2,125.7,23.6,77.4,69.9
	C29,116.2,1.5,178.7,0,245.6l0,0.2v0.2c0.4,68.3,29.6,133.2,80.3,178.6v61.9c0,12,8.4,22.5,19.9,24.9c1.7,0.4,3.4,0.5,5.1,0.5
	c4.6,0,9.2-1.3,13.2-3.8l49.7-31.1c28.1,9.8,57.3,14.8,87.1,14.8h0.4c1.6,0,3.3,0,4.9,0c65.1,0,126.7-24.7,173.8-69.9
	c48.4-46.4,75.9-108.8,77.4-175.8l0-0.3L511.9,245.6z M413.8,400.4c-41.5,39.8-95.7,61.5-153,61.5c-1.5,0-3,0-4.5,0l-0.2,0h-0.2
	c-27.7,0.1-54.9-4.8-80.9-14.3c-6.4-2.4-13.4-1.6-19.2,2L110.3,478V421c0-6.3-2.8-12.4-7.6-16.6C56.9,364.6,30.4,306.9,30,246.1
	c1.4-58.9,25.6-113.8,68.1-154.5c42.6-40.8,98.6-62.6,157.5-61.5l0.3,0l0.3,0c59-1.2,114.9,20.7,157.5,61.5
	c42.5,40.7,66.7,95.6,68.1,154.4C480.5,304.8,456.3,359.7,413.8,400.4z"/>
<path class="st0" d="M394.6,163.7l-95.3,52l-57.1-49c-9.9-8.5-24.8-7.9-34,1.3L87.6,288.5c-4.7,4.8-7.3,11-7.3,17.7
	c0,6.7,2.6,13,7.4,17.7c4.8,4.8,11.2,7.3,17.6,7.3c4.1,0,8.2-1,12-3.1l95.3-52l57.2,49c9.9,8.5,24.8,7.9,34-1.3l120.5-120.5
	c8.7-8.8,9.6-22.8,2.2-32.7C419.2,160.8,405.4,157.8,394.6,163.7z M285.9,299.4L228,249.8c-4-3.5-9.2-5.3-14.3-5.3
	c-3.6,0-7.2,0.9-10.5,2.7l-69.9,38.1l92.8-92.8l57.8,49.6c6.9,5.9,16.8,6.9,24.8,2.6l70.1-38.2L285.9,299.4z"/>
</svg>
