<?xml version="1.0" encoding="utf-8"?>
<!-- Generator: Adobe Illustrator 23.0.3, SVG Export Plug-In . SVG Version: 6.00 Build 0)  -->
<svg version="1.1" id="Capa_1" xmlns="http://www.w3.org/2000/svg" xmlns:xlink="http://www.w3.org/1999/xlink" x="0px" y="0px"
	 viewBox="0 0 578.11 578.11" style="enable-background:new 0 0 578.11 578.11;" xml:space="preserve">
<style type="text/css">
	.st0{fill:#FFFFFF;}
</style>
<g>
	<g>
		<path class="st0" d="M577.83,456.13c1.22,9.39-1.64,17.55-8.57,24.48l-81.4,80.78c-3.67,4.08-8.46,7.55-14.38,10.4
			c-5.92,2.86-11.73,4.69-17.44,5.51c-0.41,0-1.64,0.1-3.68,0.31c-2.04,0.2-4.69,0.31-7.95,0.31c-7.75,0-20.3-1.33-37.64-3.98
			s-38.55-9.18-63.64-19.58c-25.1-10.4-53.55-26.01-85.38-46.82c-31.82-20.8-65.69-49.37-101.59-85.68
			c-28.56-28.15-52.22-55.08-70.99-80.78c-18.77-25.7-33.86-49.47-45.29-71.3c-11.42-21.83-19.99-41.62-25.7-59.36
			s-9.59-33.05-11.63-45.9s-2.86-22.95-2.45-30.29c0.41-7.34,0.61-11.42,0.61-12.24c0.82-5.71,2.65-11.53,5.51-17.44
			s6.32-10.71,10.4-14.38l81.4-81.4c5.71-5.71,12.24-8.57,19.58-8.57c5.3,0,10,1.53,14.08,4.59s7.55,6.83,10.4,11.32l65.48,124.24
			c3.67,6.53,4.69,13.67,3.06,21.42s-5.1,14.28-10.4,19.58l-29.99,29.99c-0.82,0.82-1.53,2.14-2.14,3.98s-0.92,3.37-0.92,4.59
			c1.63,8.57,5.3,18.36,11.02,29.38c4.9,9.79,12.44,21.73,22.64,35.8s24.68,30.29,43.45,48.65c18.36,18.77,34.68,33.35,48.96,43.76
			c14.28,10.4,26.21,18.05,35.8,22.95s16.93,7.85,22.03,8.87l7.65,1.53c0.82,0,2.14-0.31,3.98-0.92c1.84-0.61,3.16-1.33,3.98-2.14
			l34.88-35.5c7.35-6.53,15.91-9.79,25.7-9.79c6.94,0,12.44,1.22,16.52,3.67h0.61l118.12,69.77
			C571.1,441.24,576.2,447.97,577.83,456.13z"/>
	</g>
</g>
</svg>
