<?xml version="1.0" encoding="utf-8"?>
<!-- Generator: Adobe Illustrator 23.0.3, SVG Export Plug-In . SVG Version: 6.00 Build 0)  -->
<svg version="1.1" id="Capa_1" xmlns="http://www.w3.org/2000/svg" xmlns:xlink="http://www.w3.org/1999/xlink" x="0px" y="0px"
	 viewBox="0 0 227 227" style="enable-background:new 0 0 227 227;" xml:space="preserve">
<style type="text/css">
	.st0{fill:#FFFFFF;}
</style>
<g>
	<path class="st0" d="M199.6,25.4C181.6,7.8,152.6-0.7,113.3,0C73.7,0.8,47.3,7.8,30,21.9C13.4,35.6,5.6,55.6,5.6,84.9v29.9
		c0,34.6,18.5,72.6,54,78.4c4.1,0.7,7.9-2.1,8.6-6.2c0.7-4.1-2.1-7.9-6.2-8.6c-26.9-4.4-41.4-36-41.4-63.6V84.9
		c0-42,15.6-68.3,93-69.9c35.1-0.7,60.5,6.4,75.4,21.1c11.7,11.4,17.3,27.4,17.3,48.8v29.9c0,45.3-20.3,65.2-72.4,71.1H97
		c-2,0-3.9,0.8-5.3,2.2l-26,26c-2.9,2.9-2.9,7.7,0,10.6c1.5,1.5,3.4,2.2,5.3,2.2s3.8-0.7,5.3-2.2l23.8-23.8h34.3c0.3,0,0.6,0,0.8,0
		c29.8-3.3,50.3-11.1,64.3-24.4c14.7-14,21.9-34.2,21.9-61.6V84.9C221.4,59.6,214,39.6,199.6,25.4z"/>
	<path class="st0" d="M118.2,49C118.2,49,118.2,49,118.2,49c12.1,0,23.4,4.7,32,13.3c8.5,8.5,13.3,19.9,13.3,32
		c0,4.1,3.4,7.5,7.5,7.5c0,0,0,0,0,0c4.1,0,7.5-3.4,7.5-7.5c0-16.1-6.3-31.2-17.6-42.6C149.4,40.3,134.3,34,118.2,34c0,0,0,0,0,0
		c-4.1,0-7.5,3.4-7.5,7.5C110.7,45.6,114,49,118.2,49z"/>
	<path class="st0" d="M118.2,75.4c10.4,0,18.9,8.5,18.9,18.9c0,4.1,3.4,7.5,7.5,7.5c4.1,0,7.5-3.4,7.5-7.5
		c0-18.7-15.2-33.9-33.9-33.9h0c-4.1,0-7.5,3.4-7.5,7.5C110.7,72,114,75.4,118.2,75.4z"/>
	<path class="st0" d="M84.5,88.2c-3.4,2.3-4.3,7-2,10.4s7,4.3,10.4,2c2.7-1.8,9-6.1,8.5-14.8c-0.3-5.2-4.9-12.5-8.8-17.8
		c-5.6-7.7-10.5-12.3-14.4-13.8c-3.7-1.4-7.5-1.4-11.4-0.1c-8,2.7-13.9,7.6-16.9,14.2c-2.9,6.4-2.9,13.7,0.2,21.2
		c7.2,17.7,17.3,33.2,30.1,46.1c12.8,12.7,28.3,22.8,46,30c3.8,1.6,7.6,2.3,11.3,2.3c3.5,0,6.8-0.7,10-2.1c6.6-3,11.5-8.9,14.2-16.9
		c1.3-3.9,1.3-7.7-0.1-11.3c-1.4-3.9-6.1-8.8-13.8-14.4c-5.3-3.8-12.6-8.5-17.8-8.8c-8.6-0.4-12.9,5.9-14.7,8.5
		c-2.3,3.4-1.5,8.1,2,10.4c3.4,2.3,8.1,1.5,10.4-2c0.8-1.2,1.3-1.7,1.5-2c4.2,1.3,16.2,10.2,18.4,13.5c0.1,0.2,0.1,0.5-0.1,1.1
		c-0.9,2.8-2.8,6.5-6.2,8.1c-3.2,1.5-6.8,0.6-9.3-0.4c-15.8-6.5-29.7-15.5-41.1-26.7C79.7,113.6,70.7,99.8,64.2,84
		c-1-2.5-1.9-6.1-0.4-9.3c1.6-3.4,5.2-5.3,8-6.2c0.6-0.2,0.9-0.2,1.2-0.1c3.4,2.2,12.2,14.2,13.5,18.4
		C86.3,86.9,85.7,87.4,84.5,88.2z"/>
</g>
</svg>
