<svg width="22" height="22" fill="none" xmlns="http://www.w3.org/2000/svg"><circle cx="11" cy="11" r="11" fill="#F64A4A" fill-opacity=".85"/><g clip-path="url(#clip0)"><path d="M15.776 13.903l-1.544-1.545c-.308-.306-.817-.297-1.136.022l-.778.778-.153-.086c-.492-.272-1.164-.645-1.872-1.353-.71-.71-1.083-1.383-1.356-1.875l-.084-.15.522-.521.257-.258c.319-.318.328-.828.02-1.135L8.109 6.235c-.306-.306-.816-.297-1.135.022l-.435.438.012.011a2.517 2.517 0 00-.359.633c-.084.22-.136.43-.16.642-.203 1.69.57 3.235 2.666 5.332 2.898 2.898 5.233 2.679 5.334 2.668a2.608 2.608 0 001.274-.519l.01.009.44-.432c.318-.319.328-.828.02-1.136z" fill="#fff"/></g><defs><clipPath id="clip0"><path fill="#fff" transform="translate(6 6)" d="M0 0h10v10H0z"/></clipPath></defs></svg>