<svg width="46" height="64" fill="none" xmlns="http://www.w3.org/2000/svg"><path d="M45.006 9l-2.984-.017h-.005L42 8.984V7a1 1 0 00-1-1h-3V4a1 1 0 00-1-1H12.105a3.252 3.252 0 00-3.237-3A3.252 3.252 0 005.63 3H1a1 1 0 00-1 1v51a1 1 0 001 1h2v3a1 1 0 001 1h2v3a1 1 0 001 1h38a1 1 0 001-1V10a1 1 0 00-.994-1zM8.868 2c.603 0 1.107.43 1.223 1H7.645c.115-.57.62-1 1.223-1zM2 54V5h3.62v7.24a3.252 3.252 0 003.248 3.248 3.252 3.252 0 003.248-3.248V7.744a1 1 0 00-2 0v4.496a1.25 1.25 0 01-1.248 1.248A1.25 1.25 0 017.62 12.24V5H36v49H2zm3 4v-2h32a1 1 0 001-1V8h2v50H5zm3 4v-2h33a1 1 0 001-1V10.983h.011l1.99.012V62H8z" fill="#fff"/><path d="M26 22H12a1 1 0 100 2h14a1 1 0 100-2zm0 4H12a1 1 0 100 2h14a1 1 0 100-2zm-4 4h-6a1 1 0 000 2h6a1 1 0 100-2z" fill="#fff"/></svg>