<svg width="20" height="20" fill="none" xmlns="http://www.w3.org/2000/svg"><circle cx="10" cy="10" r="10" fill="#fff" fill-opacity=".2"/><g clip-path="url(#clip0)"><path d="M14.776 12.903l-1.544-1.545c-.308-.306-.817-.297-1.136.022l-.778.778-.153-.086c-.492-.272-1.164-.645-1.872-1.353-.71-.71-1.083-1.383-1.356-1.875l-.084-.15.522-.522.257-.257c.319-.318.328-.828.02-1.135L7.109 5.235c-.306-.307-.816-.297-1.135.022l-.435.437.012.012a2.517 2.517 0 00-.359.633c-.084.22-.136.43-.16.642-.203 1.69.57 3.235 2.666 5.332 2.898 2.898 5.233 2.679 5.334 2.668a2.612 2.612 0 001.274-.519l.01.009.44-.432c.318-.319.328-.828.02-1.136z" fill="#fff"/></g><defs><clipPath id="clip0"><path fill="#fff" transform="translate(5 5)" d="M0 0h10v10H0z"/></clipPath></defs></svg>