<svg width="47" height="42" fill="none" xmlns="http://www.w3.org/2000/svg"><circle cx="11" cy="11" r="11" fill="#F64A4A"/><path d="M26.735 27.463a1.72 1.72 0 001.716-1.72c0-.945-.77-1.712-1.716-1.712l-7.77-5.715 6.055 7.538a1.72 1.72 0 001.715 1.609zm7.83 5.064H17.437v4.064h17.128v-4.064z" fill="#fff"/><path d="M40.85 11.56A20.863 20.863 0 0026 5.408a20.863 20.863 0 00-14.85 6.15A20.862 20.862 0 005 26.41c0 3.622.912 7.102 2.626 10.182h3.925l2.87-1.657-1.267-2.196-3.692 2.131a18.467 18.467 0 01-1.971-10.06l4.402.776.44-2.497-4.453-.785a18.572 18.572 0 015.067-9.101l3.017 3.596 1.943-1.63-3.04-3.623a18.476 18.476 0 019.865-3.67v4.809h2.536v-4.81a18.479 18.479 0 019.865 3.67l-3.04 3.624 1.943 1.63 3.017-3.596a18.573 18.573 0 015.067 9.1l-4.453.786.44 2.497 4.402-.776a18.463 18.463 0 01-1.971 10.06l-3.692-2.131-1.267 2.196 2.87 1.657h3.925A20.879 20.879 0 0047 26.408a20.864 20.864 0 00-6.15-14.849z" fill="#fff"/></svg>