<svg width="47" height="45" fill="none" xmlns="http://www.w3.org/2000/svg"><circle cx="11" cy="11" r="11" fill="#F64A4A"/><g clip-path="url(#clip0)"><path d="M18.834 30.347c0-3.941 5.11-4.572 5.11-6.743 0-.954-.738-1.524-1.661-1.524-1.278 0-1.971 1.294-1.971 1.294l-1.478-.986s1-2.186 3.618-2.186c1.924 0 3.556 1.17 3.556 3.233 0 3.51-4.895 4.11-4.941 6.174h5.11v1.708h-7.25c-.047-.353-.093-.662-.093-.97zm8.457-3.064L32 20.386h2.356v6.466h1.417v1.649h-1.417v2.816h-1.955v-2.816H27.29v-1.218zm5.11-.43v-3.387c0-.539.078-1.14.078-1.14h-.031s-.246.585-.54 1.001l-2.524 3.495v.03h3.018zm9.642-.58l-.38 1.362c-2.162 7.746-10.052 12.633-17.857 10.696-7.496-1.86-12.155-9.124-11.035-16.525l2.259.63a.706.706 0 00.874-.855l-2.457-9.565a.706.706 0 00-1.178-.33l-7.056 6.91a.706.706 0 00.304 1.185l2.458.686c-1.834 10.011 4.341 19.981 14.42 22.606 10.464 2.725 21.138-3.753 24.046-14.168l.364-1.303a.706.706 0 00-.49-.87l-3.401-.95a.706.706 0 00-.87.49zm4.02-5.96l-3.567.463a.706.706 0 00-.61.791l.14 1.082c.051.387.405.66.792.61l3.567-.464a.706.706 0 00.609-.792l-.14-1.081a.706.706 0 00-.792-.61zm-2.746-6.74l-3.134 1.766a.706.706 0 00-.268.962l.535.95c.192.34.622.46.962.268l3.133-1.765a.706.706 0 00.269-.962l-.535-.95a.706.706 0 00-.962-.269zm-5.07-5.22l-2.244 2.81a.706.706 0 00.111.993l.853.68a.706.706 0 00.992-.11l2.244-2.812a.706.706 0 00-.112-.992l-.852-.68a.706.706 0 00-.993.11zM31.59 5.412L30.562 8.86a.706.706 0 00.475.878l1.046.312a.706.706 0 00.878-.475l1.028-3.447a.706.706 0 00-.475-.878l-1.046-.312a.706.706 0 00-.878.475zm-7.274-.233l.339 3.58a.706.706 0 00.77.637l1.085-.103a.706.706 0 00.637-.769l-.339-3.58a.706.706 0 00-.77-.637l-1.085.103a.706.706 0 00-.637.77zm-6.831 2.509l1.655 3.193c.18.346.606.481.952.302l.969-.502a.706.706 0 00.302-.952l-1.656-3.193a.706.706 0 00-.952-.302l-.968.502a.706.706 0 00-.302.952z" fill="#fff"/></g><defs><clipPath id="clip0"><path fill="#fff" transform="translate(5 3)" d="M0 0h42v42H0z"/></clipPath></defs></svg>