<svg width="47" height="42" fill="none" xmlns="http://www.w3.org/2000/svg"><circle cx="11" cy="11" r="11" fill="#F64A4A"/><path d="M23.62 13.706c.077.153.154.307.231.422.077.115.192.23.269.345.115.116.23.23.384.346.115.077.268.192.46.23.154.077.308.116.5.154.191.038.345.038.498.038.154 0 .346 0 .5-.038.153-.038.307-.077.422-.154h.038a2.477 2.477 0 00.806-.576l.039-.038a2.11 2.11 0 00.269-.345c.076-.116.153-.23.192-.384 0-.039 0-.039.038-.077.077-.154.115-.346.154-.5.038-.153.038-.345.038-.498 0-.154 0-.346-.038-.5-.039-.153-.077-.306-.154-.498a2.179 2.179 0 00-.46-.691l-.078-.077c-.115-.116-.23-.192-.383-.307-.154-.077-.27-.154-.423-.23a2.17 2.17 0 00-.46-.154c-.192-.039-.346-.039-.5-.039-.153 0-.345 0-.499.039a2.179 2.179 0 00-.46.153h-.039c-.153.077-.307.154-.422.23-.154.116-.269.192-.384.308-.115.115-.23.23-.307.345a4.178 4.178 0 00-.23.422c-.077.154-.115.308-.154.461-.038.192-.038.346-.038.5 0 .153 0 .345.038.498.039.308.115.461.154.615zm5.336 14.051h-.883V18.35a.991.991 0 00-.998-.998h-4.03a.991.991 0 00-1 .998v2.073c0 .538.423.998 1 .998h.805v6.373h-.806a.991.991 0 00-.998.998v2.073c0 .538.422.999.998.999h5.912a.991.991 0 00.998-.998v-2.074c0-.575-.46-1.036-.998-1.036z" fill="#fff"/><path d="M26 0C14.406 0 5 9.406 5 21s9.406 21 21 21 21-9.406 21-21S37.594 0 26 0zm0 39.236C15.941 39.236 7.764 31.059 7.764 21 7.764 10.941 15.941 2.764 26 2.764c10.059 0 18.236 8.178 18.236 18.236S36.059 39.236 26 39.236z" fill="#fff"/></svg>