<svg width="35" height="52" fill="none" xmlns="http://www.w3.org/2000/svg"><path fill-rule="evenodd" clip-rule="evenodd" d="M34.051 10.118l-.001-.033a1.014 1.014 0 00-.017-.13A1.066 1.066 0 0034 9.83l-.011-.031a1.101 1.101 0 00-.05-.115l-.004-.006a.994.994 0 00-.07-.11 1.025 1.025 0 00-.107-.129L24.615.295a1.025 1.025 0 00-.102-.088c-.01-.006-.018-.013-.027-.02a.955.955 0 00-.11-.07c-.004 0-.006-.002-.009-.003a1.055 1.055 0 00-.27-.096 1.07 1.07 0 00-.13-.016l-.032-.001L23.9 0H1.01A1.01 1.01 0 000 1.01v43.244c0 .558.452 1.01 1.01 1.01h15.21v5.453a1.01 1.01 0 001.548.856l3.848-2.414 3.848 2.414a1.012 1.012 0 001.547-.856v-5.453h6.031a1.01 1.01 0 001.01-1.01V10.118zm-9.14-6.668l5.692 5.692h-5.692V3.45zm-9.189 27.755c-.07-.193-.186-.508-.189-.637.079-.098.353-.271.52-.377.36-.227.768-.485 1.064-.889.3-.407.42-.878.528-1.293.047-.182.123-.475.188-.586.035-.007.11-.018.25-.018.112 0 .238.006.372.013.153.007.31.015.476.015.363 0 .657-.04.923-.13.466-.154.838-.454 1.166-.718.182-.146.486-.39.591-.406.116.015.42.26.601.406.328.264.701.564 1.166.718.267.09.56.13.924.13.165 0 .323-.008.476-.015a7.72 7.72 0 01.372-.013c.14 0 .214.01.25.018.065.11.14.404.187.586.108.415.23.886.528 1.293.296.404.704.661 1.064.89.168.105.441.278.52.376-.003.129-.118.444-.189.637-.15.41-.32.874-.32 1.388 0 .514.17.978.32 1.388.07.193.186.508.19.637-.08.098-.354.271-.52.377-.361.227-.77.486-1.065.889-.299.408-.42.878-.528 1.294-.046.18-.123.474-.187.585a1.23 1.23 0 01-.25.018 7.72 7.72 0 01-.372-.013c-.153-.007-.311-.015-.476-.015-.364 0-.657.041-.924.13-.465.154-.838.454-1.166.718-.179.145-.477.385-.596.406-.119-.021-.417-.261-.595-.405-.33-.264-.701-.564-1.167-.72a2.864 2.864 0 00-.923-.129c-.165 0-.323.008-.476.015a7.686 7.686 0 01-.372.013c-.14 0-.214-.01-.25-.018-.065-.11-.14-.404-.188-.585-.107-.416-.229-.886-.527-1.294-.296-.403-.704-.662-1.064-.889-.168-.106-.442-.279-.52-.377.002-.128.118-.444.188-.637.15-.41.32-.873.32-1.388 0-.514-.17-.978-.32-1.388zm9.269 17.686l-2.838-1.78a1.013 1.013 0 00-1.074 0l-2.838 1.78v-9.092c.108-.003.213-.007.315-.012.134-.008.26-.014.375-.014.179 0 .255.017.285.027.12.04.351.226.537.376.472.38 1.059.852 1.863.852s1.391-.473 1.863-.852c.186-.15.417-.336.537-.376a1 1 0 01.286-.026c.114 0 .24.006.374.013.102.005.207.01.314.012v9.092zm2.02-5.648v-4.258c.3-.408.426-.891.532-1.302.056-.215.132-.51.202-.605.069-.094.326-.256.513-.375.497-.314 1.116-.705 1.362-1.445.243-.73-.01-1.419-.213-1.973-.092-.251-.197-.537-.197-.692 0-.156.105-.44.197-.692.203-.554.456-1.244.213-1.974-.246-.739-.865-1.13-1.362-1.444-.187-.118-.444-.28-.513-.375-.07-.095-.146-.39-.202-.605-.145-.562-.326-1.262-.944-1.716-.493-.36-1.063-.403-1.45-.403-.163 0-.32.008-.473.016-.134.007-.26.013-.374.013a.99.99 0 01-.286-.026c-.12-.04-.35-.227-.537-.377-.472-.379-1.059-.851-1.863-.851s-1.391.472-1.863.852c-.186.15-.417.336-.537.376a.992.992 0 01-.285.026c-.114 0-.24-.006-.375-.013a8.922 8.922 0 00-.473-.016c-.386 0-.956.042-1.448.403-.62.454-.8 1.154-.946 1.716-.056.216-.132.51-.201.605-.07.094-.326.257-.514.375-.497.314-1.116.705-1.362 1.444-.243.73.01 1.42.213 1.974.093.252.197.536.197.692 0 .155-.104.44-.197.692-.203.554-.456 1.244-.213 1.974.246.739.865 1.13 1.362 1.444.188.119.445.281.514.375.07.095.145.39.2.605.107.41.233.894.533 1.302v4.258h-14.2V2.021h20.87v8.132c0 .558.451 1.01 1.01 1.01h8.131v32.08h-5.02z" fill="#2F324C"/><path fill-rule="evenodd" clip-rule="evenodd" d="M5.947 11.163h13.016a1.01 1.01 0 000-2.02H5.947a1.01 1.01 0 100 2.02zm22.271 3.079H5.947a1.01 1.01 0 100 2.02h22.271a1.01 1.01 0 100-2.02zm-4.041 5.1H5.947a1.01 1.01 0 000 2.02h18.23a1.01 1.01 0 100-2.02zm4.043 0c-.557 0-1.011.454-1.011 1.01a1.011 1.011 0 101.01-1.01z" fill="#2F324C"/></svg>