<svg width="51" height="51" fill="none" xmlns="http://www.w3.org/2000/svg"><g clip-path="url(#clip0)" fill="#2F324C"><path d="M50.817 35.21a2.535 2.535 0 00-2.445-1.773H47.25V6a.857.857 0 00-.857-.857H34.389V.857A.857.857 0 0033.53 0H.952a.857.857 0 00-.857.857V45.44c0 .473.384.857.857.857H29.28l-.429 1.322a2.571 2.571 0 003.96 2.879l4.494-3.273a.864.864 0 011.019 0l4.502 3.275a2.535 2.535 0 003.025 0 2.536 2.536 0 00.934-2.88l-1.721-5.304a.848.848 0 01.314-.95l4.511-3.275a2.54 2.54 0 00.93-2.881zM45.534 6.859v26.578H42.8a.874.874 0 01-.813-.59l-1.723-5.3a2.572 2.572 0 00-4.887 0l-.987 3.029V22.29h6.859a.857.857 0 000-1.715h-6.86v-3.429h6.86a.857.857 0 000-1.715h-6.86v-3.43h6.86a.857.857 0 000-1.714h-6.86v-3.43h11.146zM1.81 44.582V1.715h30.865v31.722h-5.41a2.573 2.573 0 00-1.516 4.654l4.51 3.274a.85.85 0 01.315.955l-.736 2.262H1.809zm47.069-7.877l-4.51 3.275a2.558 2.558 0 00-.936 2.87l1.724 5.298a.857.857 0 01-1.32.962l-4.506-3.278a2.593 2.593 0 00-3.03 0l-4.5 3.275a.857.857 0 01-1.32-.96l1.722-5.297a2.56 2.56 0 00-.937-2.873l-4.507-3.271a.858.858 0 01.506-1.555h5.573c.357.003.71-.073 1.034-.224l.016-.01.016-.005c.012-.005.02-.015.032-.021a2.546 2.546 0 001.346-1.515l1.724-5.298a.858.858 0 011.629 0l1.724 5.302a2.573 2.573 0 002.441 1.771h5.573a.857.857 0 01.507 1.554h-.001z"/><path d="M7.811 8.574h18.862a.857.857 0 000-1.715H7.811a.857.857 0 000 1.715zm0 6.858h18.862a.857.857 0 000-1.714H7.811a.857.857 0 100 1.714zm0 6.859h18.862a.857.857 0 000-1.715H7.811a.857.857 0 000 1.715zm19.719 6.002a.857.857 0 00-.857-.858H7.811a.857.857 0 000 1.715h18.862a.857.857 0 00.858-.857z"/></g><defs><clipPath id="clip0"><path fill="#fff" d="M0 0h51v51H0z"/></clipPath></defs></svg>