<svg width="51" height="51" fill="none" xmlns="http://www.w3.org/2000/svg"><g clip-path="url(#clip0)" fill="#2F324C"><path d="M48.808 33.98h-4.185a2.194 2.194 0 00-2.192 2.191v5.682H8.569v-5.682a2.194 2.194 0 00-2.192-2.192H2.192A2.194 2.194 0 000 36.171v8.124a5.178 5.178 0 005.172 5.173h40.656A5.178 5.178 0 0051 44.295v-8.124a2.194 2.194 0 00-2.192-2.192zm.2 10.315a3.184 3.184 0 01-3.18 3.18H5.172a3.184 3.184 0 01-3.18-3.18v-8.124c0-.11.09-.2.2-.2h4.185c.11 0 .2.09.2.2v6.678c0 .55.446.997.996.997h35.854c.55 0 .996-.447.996-.996v-6.68c0-.11.09-.2.2-.2h4.185c.11 0 .2.09.2.2v8.124zM11.85 13.221h1.815v11.68c0 .55.446.997.996.997h4.3c.55 0 .997-.446.997-.996v-11.68h1.814a2.619 2.619 0 002.37-1.482 2.62 2.62 0 00-.291-2.78l-4.96-6.352a2.638 2.638 0 00-4.159 0L9.772 8.96a2.62 2.62 0 00-.292 2.78 2.62 2.62 0 002.37 1.481zm-.508-3.035l4.96-6.352a.635.635 0 01.51-.248c.117 0 .34.032.508.248l4.96 6.352a.645.645 0 01-.508 1.043h-2.81a.996.996 0 00-.997.996v11.68h-2.308v-11.68a.996.996 0 00-.996-.996h-2.81a.63.63 0 01-.58-.362.629.629 0 01.071-.68zM32.11 24.884a2.622 2.622 0 002.08 1.014c.817 0 1.575-.37 2.078-1.014l4.961-6.352a2.62 2.62 0 00.292-2.78 2.62 2.62 0 00-2.37-1.482h-1.815V2.59a.996.996 0 00-.996-.996h-4.3a.996.996 0 00-.997.996v11.68H29.23a2.62 2.62 0 00-2.37 1.482 2.62 2.62 0 00.29 2.78l4.962 6.352zm-3.462-8.259a.63.63 0 01.58-.363h2.811c.55 0 .996-.446.996-.996V3.586h2.308v11.68c0 .55.446.996.996.996h2.81a.63.63 0 01.581.363.629.629 0 01-.071.68l-4.961 6.352a.634.634 0 01-.508.248.635.635 0 01-.51-.248l-4.96-6.351a.63.63 0 01-.072-.681zm8.592 10.909H13.76a2.945 2.945 0 00-2.94 2.942 2.945 2.945 0 002.94 2.941h23.48a2.945 2.945 0 002.94-2.941 2.945 2.945 0 00-2.94-2.942zm0 3.89H13.76a.95.95 0 010-1.898h23.48a.95.95 0 010 1.899z"/><path d="M13.76 36.754h12.461a.996.996 0 100-1.992h-12.46a2.945 2.945 0 00-2.942 2.941 2.945 2.945 0 002.942 2.941h23.478a2.945 2.945 0 002.942-2.94 2.945 2.945 0 00-2.942-2.942H26.221a.996.996 0 100 1.992h11.018a.95.95 0 010 1.898H13.761a.95.95 0 010-1.898z"/><path d="M31.204 35.758a.996.996 0 00-.996-.996h-.002a.995.995 0 10.002 1.992c.55 0 .996-.446.996-.996z"/></g><defs><clipPath id="clip0"><path fill="#fff" d="M0 0h51v51H0z"/></clipPath></defs></svg>