<svg width="47" height="47" fill="none" xmlns="http://www.w3.org/2000/svg"><g clip-path="url(#clip0)" fill="#2F324C"><path d="M46.914 11.145a2.35 2.35 0 00-1.096-1.425 2.35 2.35 0 00-3.212.861l-.391.681a.783.783 0 00-1.065.283l-1.99 3.39-.681-.39a.784.784 0 00-1.073.289.783.783 0 00.29 1.065l.681.392-6.657 11.536-1.645 4.394-.783 1.465a2.35 2.35 0 00.125 2.537l-1.762 2.162-.493-1.237a1.566 1.566 0 00-2.796-.22l-.282.478-.266-3.133a1.567 1.567 0 00-3.047-.368l-1.927 5.78a.783.783 0 00.493.987.679.679 0 00.243.062.783.783 0 00.745-.532l1.918-5.78.274 3.18a1.567 1.567 0 002.906.673l.29-.478.486 1.23a1.566 1.566 0 002.678.4l1.825-2.31c.202.052.41.078.619.078a2.35 2.35 0 002.044-1.16l.783-1.308 2.984-3.626 6.728-11.678.681.392a.782.782 0 01.29 1.073l-3.133 5.428a.783.783 0 00.25 1.104.783.783 0 001.074-.29l3.133-5.427a2.349 2.349 0 00-.862-3.212l-.682-.391 1.958-3.392a.783.783 0 00-.281-1.065l.391-.681a2.35 2.35 0 00.235-1.817zm-2.953.22a.783.783 0 011.073-.29.784.784 0 01.369.477.822.822 0 01-.079.596l-.391.68-1.363-.782.391-.682zM33.286 33.23l-.391-.227-1.16-.673 1.113-2.977 2.467 1.426-2.029 2.451zm-2.35 2.264a.783.783 0 01-.234-1.026l.392-.681 1.362.783-.392.673a.783.783 0 01-1.127.25zm5.272-6l-2.71-1.566 6.265-10.855 2.71 1.566-6.265 10.856zm7.049-12.21l-2.71-1.566 1.566-2.71 2.71 1.566-1.566 2.71zM12.359 35.103l-2.773 2.765-1.66-1.66a.783.783 0 10-1.104 1.112l1.66 1.66c.294.291.69.455 1.104.454.417.003.817-.16 1.113-.454l2.764-2.772a.783.783 0 00-1.104-1.105z"/><path d="M3.133 37.21a6.657 6.657 0 1013.314 0 .783.783 0 00-1.566 0 5.09 5.09 0 11-2.037-4.073.783.783 0 10.94-1.253A6.658 6.658 0 003.133 37.21zM28.195 6.273a.783.783 0 100-1.566H7.832a.783.783 0 00-.783.783v3.133c0 .433.35.783.783.783h20.363a.783.783 0 100-1.566H8.615V6.273h19.58zm-18.013 4.7a.783.783 0 000 1.566h15.664a.783.783 0 100-1.566H10.182zm20.362 5.482h-17.23a.783.783 0 000 1.566h17.23a.783.783 0 100-1.566zm-7.831 5.482a.783.783 0 00-.783-.783H6.266a.783.783 0 000 1.567H21.93c.432 0 .783-.35.783-.784zm7.832-.783h-5.483a.783.783 0 000 1.567h5.483a.783.783 0 100-1.567zm-16.447 5.483a.783.783 0 100-1.567H6.266a.783.783 0 000 1.567h7.832zm3.132 0h5.483a.783.783 0 100-1.567H17.23a.783.783 0 100 1.567z"/><path d="M35.244 36.035a.783.783 0 00-.783.784v7.831c0 .433-.35.784-.783.784H2.35a.783.783 0 01-.784-.783V2.358c0-.433.351-.783.784-.783h31.328c.432 0 .783.35.783.783v14.708a.783.783 0 001.566 0V2.358a2.35 2.35 0 00-2.35-2.35H2.35A2.35 2.35 0 000 2.358V44.65A2.35 2.35 0 002.35 47h31.328a2.35 2.35 0 002.35-2.35v-7.833a.783.783 0 00-.784-.783z"/></g><defs><clipPath id="clip0"><path fill="#fff" d="M0 0h47v47H0z"/></clipPath></defs></svg>