<svg width="48" height="37" fill="none" xmlns="http://www.w3.org/2000/svg"><path d="M47.766 20.234l-9.932-9.93a2.382 2.382 0 00-1.697-.704H22.4v1.6h4v12H28v-12h8.137a.8.8 0 01.566.234L38.07 12.8H34.4a1.6 1.6 0 00-1.6 1.6v7.2a1.6 1.6 0 001.6 1.6h12v6.4a.8.8 0 01-.8.8h-1.664a5.592 5.592 0 00-11.072 0H21.536a5.592 5.592 0 00-11.072 0H8.8a.8.8 0 01-.8-.8v-7.2H6.4v7.2A2.4 2.4 0 008.8 32h1.664a5.582 5.582 0 001.625 3.2H0v1.6h38.4a5.605 5.605 0 005.536-4.8H45.6a2.4 2.4 0 002.4-2.4v-8.8a.8.8 0 00-.234-.566zM12 31.2a4 4 0 118 0 4 4 0 01-8 0zm7.911 4a5.582 5.582 0 001.625-3.2h11.328a5.582 5.582 0 001.625 3.2H19.91zm18.489 0a4 4 0 110-8 4 4 0 010 8zm-4-13.6v-7.2h5.269l6.731 6.731v.469h-12z" fill="#2F324C"/><path d="M16.8 30.4h-1.6V32h1.6v-1.6zm22.4 0h-1.6V32h1.6v-1.6zM4 28H0v1.6h4V28zm0-3.2H1.6v1.6H4v-1.6zm0-3.2H2.4v1.6H4v-1.6zm6.4-.8A10.4 10.4 0 100 10.4a10.412 10.412 0 0010.4 10.4zm0-19.2a8.8 8.8 0 11-8.8 8.8 8.81 8.81 0 018.8-8.8z" fill="#2F324C"/><path d="M10.4 17.6a.8.8 0 00.565-.234C11.481 16.85 16 12.232 16 8.8a5.6 5.6 0 00-11.2 0c0 3.432 4.519 8.05 5.034 8.566a.8.8 0 00.566.234zm0-12.8a4.005 4.005 0 014 4c0 2.053-2.518 5.225-4 6.84-1.483-1.615-4-4.787-4-6.84a4.005 4.005 0 014-4z" fill="#2F324C"/><path d="M12.801 8.8a2.4 2.4 0 10-4.8 0 2.4 2.4 0 004.8 0zm-3.2 0a.8.8 0 111.6 0 .8.8 0 01-1.6 0zm23.999 16h-3.2v1.6h3.2v-1.6z" fill="#2F324C"/></svg>