<svg width="48" height="48" fill="none" xmlns="http://www.w3.org/2000/svg"><g clip-path="url(#clip0)" fill="#2F324C"><path d="M17.036 34.389a.936.936 0 00-.207-.034 5.991 5.991 0 001.66-4.141V25.28a.946.946 0 00-.01-.132c.005-.09.01-.179.01-.27v-3.12a.937.937 0 00-.938-.937h-6.288a4.808 4.808 0 00-4.802 4.802v4.59c0 1.603.632 3.062 1.66 4.14a.934.934 0 00-.208.035C3.483 34.79 0 38.524 0 43.057v4.005c0 .518.42.938.938.938h23.074c.518 0 .937-.42.937-.938v-4.005c0-4.533-3.483-8.267-7.913-8.668zm-8.7-7.576v-1.19a2.93 2.93 0 012.927-2.927h5.35v2.184a1.995 1.995 0 01-1.992 1.993H8.335v-.06zm0 1.935h6.284c.73 0 1.411-.203 1.994-.555v2.02a4.144 4.144 0 01-4.14 4.14 4.144 4.144 0 01-4.138-4.14v-1.465zm6.18 7.48l-2.041 2.04-2.04-2.04h4.08zm8.559 9.897h-21.2V44.25h3.89a.937.937 0 100-1.875H1.91a6.841 6.841 0 015.93-6.09l3.973 3.972a.938.938 0 001.326 0l3.972-3.973c3.359.427 5.965 3.3 5.965 6.773v3.068zm17.012-32.558a.936.936 0 00-.207-.034 5.991 5.991 0 001.66-4.14V4.46a.946.946 0 00-.011-.133 3.98 3.98 0 00.01-.269V.938A.937.937 0 0040.602 0h-6.288a4.808 4.808 0 00-4.802 4.802v4.59c0 1.604.632 3.062 1.659 4.141a.936.936 0 00-.207.034c-4.43.402-7.913 4.136-7.913 8.668v4.006c0 .518.42.937.937.937h7.543a.937.937 0 100-1.875h-6.605v-3.067c0-3.473 2.606-6.347 5.964-6.773l3.972 3.972a.934.934 0 001.326 0l3.973-3.972c3.358.427 5.964 3.3 5.964 6.773v3.067H39.22a.937.937 0 100 1.875h7.844c.518 0 .937-.42.937-.937v-4.005c0-4.533-3.483-8.267-7.913-8.669zm-4.561 3.88l-2.04-2.041h4.08l-2.04 2.04zm4.138-8.055a4.144 4.144 0 01-4.138 4.139 4.143 4.143 0 01-4.14-4.139V7.926h6.285c.729 0 1.411-.203 1.993-.554v2.02zm0-5.334a1.995 1.995 0 01-1.993 1.993h-6.284V4.802a2.93 2.93 0 012.927-2.927h5.35v2.183z"/><path d="M36.188 25.578a.944.944 0 00-.663-.275.94.94 0 00-.663 1.6.939.939 0 001.6-.662c0-.247-.1-.489-.274-.663zM25.07 13.118l-3.922-3.92v-4.51A4.693 4.693 0 0016.461 0H4.688A4.693 4.693 0 000 4.688v8.25a4.693 4.693 0 004.688 4.687H16.46a4.661 4.661 0 004.337-2.906h3.608a.938.938 0 00.663-1.6zm-4.956-.274a.937.937 0 00-.913.727 2.797 2.797 0 01-2.74 2.179H4.688a2.816 2.816 0 01-2.813-2.813v-8.25a2.816 2.816 0 012.813-2.812H16.46a2.816 2.816 0 012.812 2.813v4.898c0 .249.1.487.275.663l2.595 2.595h-2.029zm23.199 17.531H31.54a4.661 4.661 0 00-4.337 2.906h-3.608a.938.938 0 00-.663 1.6l3.92 3.921v4.51A4.693 4.693 0 0031.54 48h11.773a4.693 4.693 0 004.688-4.688v-8.25a4.693 4.693 0 00-4.688-4.687zm2.813 12.938a2.816 2.816 0 01-2.813 2.812H31.54a2.816 2.816 0 01-2.812-2.813v-4.898a.937.937 0 00-.275-.663l-2.595-2.595h2.029a.937.937 0 00.913-.727 2.797 2.797 0 012.74-2.179h11.773a2.816 2.816 0 012.813 2.813v8.25z"/><path d="M41.64 36.693a.937.937 0 00-1.326 0l-2.492 2.492-1.159-1.159a.938.938 0 00-1.326 1.326l1.822 1.822a.934.934 0 001.326 0l3.155-3.155a.938.938 0 000-1.326zM14.836 6.213a3.258 3.258 0 00-3.014-3.015 3.224 3.224 0 00-2.446.867A3.262 3.262 0 008.343 6.44a.938.938 0 001.875 0c0-.385.155-.742.437-1.006a1.376 1.376 0 111.24 2.348c-.73.164-1.24.799-1.24 1.544v.5a.937.937 0 101.876 0v-.273a3.233 3.233 0 002.305-3.341zm-2.579 6.539a.945.945 0 00-.663-.275.94.94 0 00-.663 1.6.943.943 0 00.663.275c.246 0 .488-.1.663-.274a.945.945 0 00.274-.663c0-.247-.1-.489-.274-.663zM10.178 42.65a.944.944 0 00-.662-.275c-.247 0-.489.1-.663.275a.945.945 0 00-.275.663c0 .246.1.488.275.662a.945.945 0 00.663.275.94.94 0 00.662-.275.944.944 0 00.275-.663.94.94 0 00-.275-.662z"/></g><defs><clipPath id="clip0"><path fill="#fff" d="M0 0h48v48H0z"/></clipPath></defs></svg>