<svg width="46" height="57" fill="none" xmlns="http://www.w3.org/2000/svg"><path d="M45.322 55.378l-2.572-2.571v-33.25l-.472-.472L38 14.807V0H0v49.4h4.75v4.75h36.657l2.571 2.572a.947.947 0 001.344 0 .949.949 0 000-1.344zM39.507 19H28.5V7.993l9.5 9.5L39.507 19zM1.9 47.5V1.9h34.2v11.007l-7.685-7.685-.472-.472H4.75V47.5H1.9zm4.75 4.75V6.65H26.6V20.9h14.25v30.007l-7.138-7.139a11.182 11.182 0 002.655-7.238c0-6.196-5.04-11.236-11.237-11.236-6.196 0-11.236 5.04-11.236 11.236 0 6.196 5.04 11.237 11.236 11.237 2.757 0 5.281-1.002 7.238-2.655l7.139 7.138H6.65zm18.48-6.383c-5.148 0-9.336-4.189-9.336-9.337s4.188-9.336 9.336-9.336c5.148 0 9.337 4.188 9.337 9.336 0 5.148-4.189 9.337-9.337 9.337z" fill="#fff"/><path d="M19.594 34.2h5.7a.95.95 0 100-1.9h-5.7a.95.95 0 100 1.9zm11.4 3.8h-11.4a.95.95 0 100 1.9h11.4a.95.95 0 100-1.9z" fill="#fff"/></svg>