<svg width="44" height="55" fill="none" xmlns="http://www.w3.org/2000/svg"><path d="M29.713 0H0v55h43.083V13.37L29.713 0zm.537 3.13l9.704 9.703H30.25V3.13zM1.833 53.166V1.833h26.584v12.834H41.25v38.5H1.833z" fill="#fff"/><path d="M33 19.25H18.332a.916.916 0 100 1.833h14.666a.916.916 0 100-1.833zM15.01 16.7l-3.942 3.155-1.253-1.253a.915.915 0 10-1.296 1.296l1.833 1.833a.915.915 0 001.22.068l4.584-3.666A.917.917 0 0015.01 16.7zM33 29.334H18.332a.916.916 0 100 1.833h14.666a.916.916 0 100-1.834zm-17.99-2.55l-3.942 3.154-1.253-1.253a.916.916 0 10-1.296 1.297l1.833 1.833a.915.915 0 001.22.068l4.584-3.667a.917.917 0 00-1.145-1.432zM33 39.416H18.332a.916.916 0 100 1.834h14.666a.916.916 0 100-1.834zm-17.99-2.549l-3.942 3.155-1.253-1.253a.916.916 0 10-1.296 1.296l1.833 1.833a.915.915 0 001.22.068l4.584-3.667a.917.917 0 00-1.145-1.432z" fill="#fff"/></svg>