<svg width="589" height="544" fill="none" xmlns="http://www.w3.org/2000/svg"><path d="M280.036 129.152V309.13h114.711v-31.645H311.68V129.152h-31.644z" fill="#F5F5F5" fill-opacity=".5"/><path d="M589 273.468C589 122.659 466.139 0 315.332 0 180.065 0 67.48 99.486 45.701 228.041H1.774l75.753 130.533 77.972-130.533h-45.408c20.778-94.933 105.012-164.752 205.388-164.752 115.907 0 210.233 94.286 210.233 210.193 0 100.158-71.631 184.152-164.587 205.136v64.517C489.681 521.354 589 408.732 589 273.468zM48.234 514.525l20.124-21.394c13.075-14.23 22.046-24.88 26.915-32.097 4.87-7.219 7.304-15.486 7.304-24.884 0-13.961-4.58-24.936-13.74-32.975-9.158-8.032-21.909-12.047-38.253-12.047-15.393 0-27.752 4.794-37.081 14.359C4.17 415.055-.324 426.993.018 440.748l.206.89h33.709c0-7.911 1.481-12.683 4.444-17.076 2.963-4.396 7.031-6.726 12.209-6.726 5.787 0 10.128 1.633 13.021 5.041 2.896 3.404 4.342 7.931 4.342 13.655 0 4.016-1.43 8.731-4.29 14.178-2.86 5.451-6.984 11.637-13.04 18.587l-47.47 50.25v22.959h102.844v-27.688H48.541l-.307-.293z" fill="#F5F5F5" fill-opacity=".5"/><path d="M200.926 394.174h-33.622v-.58l-60.03 96.082 1.67 21.186h58.36v31.645h33.622v-31.645h15.822v-25.711h-15.822v-90.977zm-33.622 90.977h-29.552l25.539-42.492 3.028-4.468.985-.057v47.017zm162.176 57.356V478.48c0-4.758.119-9.123-.407-13.172-1.333-10.205-4.1-18.201-8.777-23.907-6.541-7.968-15.425-11.952-26.866-11.952-5.789 0-10.657 1.379-15.459 4.138s-9.802 6.625-11.779 11.596v-52.987h-35.6v150.311h35.6v-80.881c0-1.77 3.301-3.149 5.755-4.138 2.448-.985 5.156-1.479 8.493-1.479 5.245 0 9.089 1.6 11.643 4.798 2.555 3.202 3.775 9.024 3.775 17.472v64.228h33.622z" fill="#F5F5F5" fill-opacity=".5"/></svg>