<svg width="227" height="60" fill="none" xmlns="http://www.w3.org/2000/svg"><path d="M88.953 9.865h-7.281c-1.42.218-1.856 1.856-1.856 1.856-1.492 6.916-2.548 11.794-3.822 15.288-2.038 5.68-4.113 8.737-10.41 8.009l4.986-23.333v-.037c0-.109.037-.182.037-.29 0-.802-.62-1.457-1.42-1.493H56.556s-.983 4.695-.983 4.768c-.182.838.51.983 1.274 1.384l2.439 1.31s-5.387 24.06-5.424 25.59c0 .8.655 1.456 1.42 1.492h11.903c.8 0 2.22-.182 3.167-.328 6.916-1.055 12.085-4.622 14.815-13.25 1.456-4.622 3.24-10.556 5.023-18.71.037-.072.037-.145.037-.254.036-.146.072-.291.072-.437v-.073c.073-.8-.546-1.456-1.346-1.492zM23.177 11.72l-6.698 31.306s-.437 1.383 1.347 1.383h7.717c1.347 0 1.456-1.347 1.456-1.347l5.278-24.752s3.422-.765 6.115-.219c1.602.328 1.857 1.274 1.711 2.475-.11 1.02-4.04 17.691-4.805 22.532-.145.838.073 1.31 1.238 1.31h7.971c1.202 0 1.42-1.419 1.42-1.419s4.477-19.656 4.914-22.095c.473-2.912.728-6.334-2.511-8.736-3.822-2.84-11.612-2.44-14.524-2.257-2.876.218-10.63 1.82-10.63 1.82zM18.335 0h-7.68C9.162 0 9.017 1.092 9.017 1.092L7.888 6.516s-.218.983.546.983h8.482c.546 0 1.019-.474 1.165-1.02.036-.145 1.091-5.241 1.091-5.241C19.5 0 18.335 0 18.335 0zM15.75 9.865H2.793s-.946 4.695-.983 4.768c-.182.838.546.983 1.274 1.384l2.44 1.31-5.497 25.88s-.292 1.166 1.092 1.166h7.644c1.456 0 1.674-1.347 1.674-1.347l6.734-31.414c.182-.983-.619-1.71-1.42-1.747zm106.109 19.838c-.255.947-.837 1.493-1.638 1.493h-20.057s-.036.072-.073.837c-.181 3.24 1.311 4.368 5.279 4.368 3.931 0 12.267-.546 12.339-.546.546 0 1.02.255.947.8-.036.438-1.165 4.915-1.165 4.915-.255.983-.51 1.456-1.674 1.674-4.223 1.02-7.754 1.493-13.214 1.493-6.734 0-12.886-3.859-12.376-12.559.073-1.055 1.201-6.151 1.201-6.151C93.94 15.179 100.82 9.61 111.048 9.61c8.445 0 12.449 5.751 12.085 13.031 0 1.238-1.274 7.062-1.274 7.062zM109.192 17.8c-4.259 0-6.407 2.876-7.608 7.171h11.757c.255-1.02.437-1.93.474-2.73.145-2.876-1.129-4.441-4.623-4.441zm116.119-7.972h-4.805c-8.809.146-15.179 5.278-17.327 14.342l-3.968 18.892s-.473 1.31.947 1.31h7.171c1.201 0 1.347-1.273 1.347-1.273l3.494-16.672c1.274-4.841 3.895-7.062 8.372-7.171h4.914l1.529-7.353c-.036-.036.401-2.075-1.674-2.075zm-94.825 1.892l-9.864 45.975s-.401 1.347 1.346 1.347h7.535c1.092 0 1.42-1.529 1.42-1.529l2.839-13.104h6.079c10.229-.182 17.4-6.407 19.875-16.198 6.843-27.265-29.23-16.49-29.23-16.49zm10.884 6.298c1.383-.182 4.223-.255 6.297.583.11.073.255.109.364.182 2.439 1.092 3.968 3.494 2.73 8.335-1.201 4.805-4.768 7.972-9.828 8.045h-4.987l3.604-16.853c.036 0 .437-.11 1.82-.292z" fill="#00B2FF" fill-opacity=".5"/><path d="M184.942 9.61c-1.638-.037-4.914.364-6.188.619-9.428 1.783-13.396 8.809-15.18 16.744-.509 2.257-.946 5.205-.982 5.751-.51 7.499 4.295 12.195 12.085 12.304 3.239.036 6.588-1.82 8.699-3.786l-.473 2.002s-.291 1.165 1.092 1.165h7.026c1.456 0 1.674-1.347 1.674-1.347l6.552-30.759c.037 0-5.423-2.548-14.305-2.693zm-.401 22.495c-1.237 1.31-3.167 2.512-5.314 3.095-3.677 1.019-7.28-.583-6.552-5.424 1.019-6.625 3.64-11.976 10.629-11.612 2.147.11 3.64.473 4.295.764l-3.058 13.177z" fill="#FF8181"/></svg>