<svg width="147" height="52" fill="none" xmlns="http://www.w3.org/2000/svg"><path d="M44.61 35.418c1.059.438 2.262.803 3.575 1.058 1.314.256 2.59.401 3.867.401.912 0 1.787-.109 2.626-.291a6.59 6.59 0 002.189-.912c.62-.401 1.13-.876 1.495-1.46a3.34 3.34 0 00.584-1.933c0-.802-.146-1.459-.438-1.97A4.115 4.115 0 0057.304 29c-.51-.365-1.094-.657-1.75-.912-.657-.256-1.387-.511-2.116-.766l-2.116-.766c-2.553-.949-4.413-2.043-5.58-3.247-1.168-1.203-1.751-2.808-1.751-4.851 0-2.736.984-4.888 2.918-6.493 1.933-1.605 4.778-2.407 8.572-2.407 1.568 0 3.1.146 4.596.437a27.63 27.63 0 013.94 1.058l-1.277 4.633c-.876-.329-1.934-.62-3.138-.912-1.203-.292-2.516-.438-3.939-.438-1.459 0-2.772.255-3.94.766-1.13.51-1.714 1.423-1.714 2.772 0 .693.146 1.277.438 1.751.255.474.656.876 1.13 1.24.475.329 1.022.62 1.642.876.62.219 1.277.474 2.006.73l2.627.911c.948.328 1.86.693 2.735 1.131a7.834 7.834 0 012.225 1.641c.62.657 1.131 1.46 1.496 2.408s.584 2.079.584 3.392c0 1.46-.292 2.845-.912 4.049-.584 1.204-1.46 2.262-2.554 3.137-1.094.875-2.444 1.532-3.976 2.006-1.568.474-3.283.73-5.18.73-1.933 0-3.61-.11-5.033-.401a24.744 24.744 0 01-4.012-1.058l1.386-4.998zm45.852 4.925c-2.371.912-5.07 1.386-8.098 1.386-5.107 0-8.973-1.459-11.6-4.34-2.59-2.919-3.903-6.822-3.903-11.746 0-2.262.329-4.414.949-6.347.656-1.97 1.605-3.648 2.845-5.107 1.276-1.459 2.809-2.59 4.705-3.428 1.897-.84 4.05-1.277 6.53-1.277 1.677 0 3.173.11 4.45.292 1.276.182 2.48.51 3.647.948l-1.021 4.742c-1.97-.693-4.195-1.021-6.712-1.021-3.1 0-5.398 1.021-6.894 3.064-1.532 2.042-2.261 4.742-2.261 8.097 0 3.83.875 6.64 2.59 8.426 1.714 1.788 4.085 2.663 7.076 2.663 1.204 0 2.298-.073 3.32-.255 1.02-.146 2.042-.438 3.1-.839l1.276 4.742zm3.757-29.473c1.35-.438 2.845-.766 4.486-1.021a30.66 30.66 0 014.742-.365c4.013 0 7.04.912 9.119 2.736 2.08 1.823 3.101 4.742 3.101 8.717v19.26c-1.386.328-3.101.657-5.107.985a37.92 37.92 0 01-6.128.51c-1.97 0-3.72-.182-5.325-.547-1.569-.364-2.918-.948-4.013-1.75-1.094-.803-1.933-1.824-2.553-3.065-.584-1.24-.912-2.735-.912-4.486 0-1.715.328-3.247 1.058-4.523.693-1.313 1.641-2.371 2.845-3.247 1.204-.875 2.59-1.495 4.158-1.933 1.569-.438 3.21-.62 4.925-.62 1.276 0 2.334.037 3.136.073a47.52 47.52 0 012.08.219v-1.094c0-2.371-.584-4.013-1.788-4.925-1.203-.912-2.954-1.386-5.216-1.386-1.386 0-2.699.11-3.94.329-1.203.218-2.407.51-3.574.875l-1.094-4.742zm15.648 15.685c-.584-.073-1.35-.146-2.261-.256a30.474 30.474 0 00-2.335-.109c-2.48 0-4.377.474-5.654 1.386-1.313.912-1.933 2.335-1.933 4.195 0 1.204.219 2.152.657 2.809a4.491 4.491 0 001.641 1.568 5.475 5.475 0 002.189.657 25.621 25.621 0 005.106-.036c.985-.11 1.861-.256 2.59-.438v-9.776zM20.463 41.984c-2.881 0-5.58-.547-8.061-1.641a20.69 20.69 0 01-6.493-4.487c-1.824-1.897-3.283-4.122-4.34-6.675A21.913 21.913 0 010 20.974c0-2.918.51-5.654 1.568-8.207 1.058-2.554 2.48-4.742 4.305-6.639 1.824-1.897 3.976-3.392 6.493-4.487C14.846.547 17.546 0 20.425 0c2.882 0 5.582.547 8.062 1.641a20.44 20.44 0 016.53 4.487 20.834 20.834 0 014.304 6.639c1.057 2.553 1.568 5.289 1.568 8.207 0 2.918-.51 5.654-1.568 8.207a20.601 20.601 0 01-4.305 6.675 20.44 20.44 0 01-6.529 4.487c-2.444 1.094-5.143 1.641-8.025 1.641zm0-5.398c2.189 0 4.195-.438 5.982-1.277 1.788-.839 3.32-1.97 4.56-3.429 1.24-1.422 2.225-3.1 2.918-4.997.693-1.897 1.021-3.903 1.021-6.018 0-2.153-.328-4.195-1.021-6.092-.693-1.897-1.641-3.575-2.918-4.997a14.07 14.07 0 00-4.56-3.393c-1.787-.802-3.757-1.24-5.982-1.24-2.188 0-4.195.401-5.945 1.24-1.751.84-3.283 1.934-4.523 3.393-1.277 1.459-2.226 3.1-2.919 4.997-.693 1.897-1.02 3.94-1.02 6.091 0 2.116.327 4.122 1.02 6.02a14.554 14.554 0 002.919 4.996c1.276 1.423 2.772 2.59 4.523 3.43 1.787.838 3.757 1.276 5.945 1.276z" fill="#232035" fill-opacity=".1"/><path d="M64.016 42.313S60.04 45.96 51.614 45.96c-13.241 0-17.51-8.316-23.017-8.316 0 0-5.362 4.012-4.34 4.012 5.726 0 9.775 7.952 23.6 7.952 12.183 0 16.159-7.295 16.159-7.295zm80.103-29.802c-1.678-2.006-4.268-3.027-7.806-3.027a11.45 11.45 0 00-3.429.51c-1.021.329-1.97.767-2.772 1.314a11.356 11.356 0 00-2.116 1.824c-.62.693-1.131 1.35-1.532 2.042-.511.912-1.35 2.809-1.35 2.809l-.291-.146s.839-2.882 1.495-4.304c-.036-.183-.036-.693-.073-.912-.109-1.021-.219-1.824-.365-2.444h-5.033v30.786h5.945V25.351c0-1.86.219-3.502.693-4.815.475-1.35 1.058-2.444 1.824-3.283s1.642-1.459 2.627-1.86c.984-.401 2.079-.584 3.173-.584 1.933 0 3.319.657 4.195 2.007.875 1.35 1.313 3.428 1.313 6.274v17.873h5.946V21.448c.072-3.903-.766-6.894-2.444-8.937zM64.891 45.595h1.605c.912 0 1.641.474 1.641 1.46 0 .838-.4 1.276-.948 1.64l1.386 2.408-.802.255-1.313-2.443h-.84v2.334h-.766v-5.654h.037zm.766 2.7h.438c.985 0 1.167-.73 1.167-1.204 0-.693-.438-.949-.948-.949h-.657v2.152zm6.311-2.7l2.115 5.618h-.911l-.584-1.642h-2.152l-.62 1.642h-.766l2.298-5.618h.62zm.438 3.392a35.148 35.148 0 01-.84-2.553c-.291 1.022-.583 1.788-.875 2.553h1.715zm4.523-3.392c2.261 0 3.064 1.277 3.064 2.627 0 1.86-1.204 2.99-3.173 2.99h-1.678v-5.617h1.787zm-1.021 5.034h.875c1.569 0 2.335-.802 2.335-2.444 0-1.24-.694-2.08-2.189-2.08h-1.021v4.524zm6.346-5.034h-.766v5.618h.766v-5.618zm1.533 2.7c0-1.569 1.204-2.809 2.809-2.809 1.605 0 2.808 1.24 2.808 2.809 0 1.678-1.094 2.991-2.808 2.991-1.751 0-2.809-1.313-2.809-2.991zm4.742 0c0-1.058-.547-2.262-1.933-2.262-1.386 0-1.97 1.204-1.97 2.262 0 1.094.51 2.444 1.97 2.444 1.459 0 1.933-1.35 1.933-2.444zm2.371-2.7h.765v5.034h2.371v.584H90.9v-5.618zm4.011 2.7c0-1.569 1.204-2.809 2.809-2.809 1.605 0 2.808 1.24 2.808 2.809 0 1.678-1.057 2.991-2.808 2.991-1.715 0-2.809-1.313-2.809-2.991zm4.778 0c0-1.058-.547-2.262-1.933-2.262-1.386 0-1.97 1.204-1.97 2.262 0 1.094.511 2.444 1.97 2.444 1.423 0 1.933-1.35 1.933-2.444zm7.041.328v2.298c-.547.183-1.24.365-1.933.365-2.006 0-3.027-1.386-3.027-2.918 0-1.423 1.094-2.882 3.137-2.882.802 0 1.459.256 1.787.547l-.328.475a2.664 2.664 0 00-1.459-.438c-1.46 0-2.299.985-2.299 2.298 0 1.422.985 2.37 2.189 2.37.474 0 .839-.035 1.131-.218v-1.897h.802zm2.699 2.59V48.77l-1.714-3.1.839-.183 1.386 2.663 1.459-2.663.693.11-1.897 3.173v2.444h-.766zm10.761-4.669c-.255-.22-.875-.474-1.459-.474-1.386 0-2.225.984-2.225 2.298 0 1.422.985 2.37 2.225 2.37.62 0 1.094-.182 1.423-.4l.291.474c-.364.255-1.057.51-1.75.51-2.007 0-3.028-1.386-3.028-2.918 0-1.423 1.094-2.882 3.137-2.882.802 0 1.35.292 1.751.584l-.365.438zm1.678-.949h.766v5.034h2.371v.584h-3.137v-5.618zm5.07 0h-.766v5.618h.766v-5.618zm6.748 5.618h-.62c-1.204-1.46-3.319-3.976-3.648-4.487v4.487h-.656v-5.618h.583c1.241 1.46 3.32 3.903 3.684 4.487v-4.487h.657v5.618zm2.554-5.618h-.766v5.618h.766v-5.618zm6.055.949c-.256-.22-.876-.474-1.459-.474-1.387 0-2.226.984-2.226 2.298 0 1.422.985 2.37 2.226 2.37.62 0 1.094-.182 1.422-.4l.292.474c-.365.255-1.058.51-1.751.51-2.006 0-3.028-1.386-3.028-2.918 0-1.423 1.095-2.882 3.137-2.882.803 0 1.35.292 1.751.584l-.364.438zm4.304-.109c-.256-.22-.62-.402-.985-.402-.547 0-.876.329-.876.766 0 .402.329.693 1.058 1.204.766.547 1.204 1.094 1.204 1.787 0 .876-.839 1.46-1.751 1.46-.547 0-1.167-.183-1.568-.584l.364-.474c.329.218.693.474 1.204.474.547 0 .985-.292.985-.912 0-.693-.839-1.167-1.313-1.496-.474-.364-.985-.693-.985-1.495 0-.766.73-1.313 1.605-1.313.584 0 1.058.219 1.386.547l-.328.438z" fill="#232035" fill-opacity=".1"/></svg>