<svg width="279" height="59" fill="none" xmlns="http://www.w3.org/2000/svg"><path d="M81.142 34.456c0-.976-.093-2.139-.372-3.115-1.162-4.464-5.44-8.23-11.346-8.23-8.137 0-12.973 6.51-12.973 15.159 0 8.044 4.37 14.647 12.787 14.647 5.301 0 10.09-3.255 11.532-8.556.28-.976.372-1.953.372-3.115v-6.79zM89.047 0v47.663c0 3.487.093 7.486.372 10.183h-7.068l-.372-6.835h-.186c-2.418 4.417-7.58 7.718-14.647 7.718-10.463 0-18.6-8.044-18.6-20.041-.093-13.206 8.928-21.158 19.39-21.158 6.696 0 11.16 2.837 13.067 5.953h.186V0h7.858zm37.34 48.36V33.62c0-7.905-3.208-16.136-16.554-16.136-5.44 0-10.742 1.395-14.322 3.441l1.767 4.79c3.023-1.86 7.254-2.93 11.346-2.93 8.835-.093 9.858 5.86 9.858 9.114l.186 6.045v6.603c0 .744-.093 1.535-.372 2.279-1.255 3.348-4.929 6.603-10.648 6.603-3.953 0-7.347-2.14-7.347-6.836 0-5.72 5.394-7.951 11.718-8.649v-4.975c-12.648 1.162-19.624 6.184-19.624 14.415 0 5.72 4.465 11.3 13.253 11.3 6.185 0 10.928-2.79 13.253-5.86h.279l.697 4.976h7.068c-.372-2.65-.558-5.999-.558-9.44zm48.687 7.765c-2.79 1.302-8.603 2.604-15.903 2.604-17.019 0-29.714-9.765-29.714-27.853 0-17.252 12.788-28.83 31.481-28.83 7.44 0 12.276 1.488 14.322 2.464l-1.953 5.766c-2.883-1.302-7.068-2.278-12.09-2.278-14.136 0-23.529 8.23-23.529 22.645 0 13.532 8.509 22.088 23.064 22.088 4.836 0 9.672-.884 12.787-2.279l1.535 5.673z" fill="#232035" fill-opacity=".1"/><path d="M195.161 53.336c7.533 0 13.159-6.417 13.159-15.392 0-6.696-3.673-15.066-12.973-15.066-9.207 0-13.253 7.812-13.253 15.299 0 8.649 5.348 15.159 12.974 15.159h.093zm-.279 5.394c-11.625 0-20.739-7.812-20.739-20.274 0-13.206 9.579-20.925 21.483-20.925 12.415 0 20.832 8.23 20.832 20.18 0 14.648-11.16 21.019-21.483 21.019h-.093zm25.388-28.04c0-4.65-.093-8.649-.372-12.323h6.882l.372 7.72h.279c1.953-5.302 6.789-8.65 12.09-8.65.791 0 1.442.093 2.139.233v6.696c-.883-.093-1.72-.186-2.79-.186-5.533 0-9.486 3.813-10.555 9.114a19.832 19.832 0 00-.279 3.441v21.018h-7.859l.093-27.063zm35.293 8.695h23.157c.186-.837.279-1.953.279-3.44 0-7.255-3.673-18.554-17.809-18.554-12.602 0-20.414 9.346-20.414 21.343 0 11.811 8.045 19.856 21.297 19.856 6.882 0 11.718-1.395 14.508-2.511l-1.441-5.069c-2.883 1.07-6.371 1.953-11.997 1.953-7.859 0-14.601-3.999-14.787-13.67v-.559c-.047-1.534 0-3.069.139-4.51v-.047c.605-4.975 4.046-11.625 12.09-11.625 8.789 0 10.928 7.161 10.835 11.625h-15.81c-.047 1.535-.047 5.208-.047 5.208zM8.044 57.8H0L20.46 2.882h9.393l20.6 54.916h-8.324l-6.417-17.251H21.157c.14-.419 1.721-5.44 1.814-5.534h11.16l-9.3-25.807L8.044 57.799z" fill="#232035" fill-opacity=".1"/></svg>