<svg width="200" height="56" fill="none" xmlns="http://www.w3.org/2000/svg"><path d="M38.342.548l-9.208 26.749H29L31.15.548H11.527L0 54.548h12.064l8.938-41.966h.135l-1.95 41.966h8.133l15.928-41.966h.134L34.41 54.548h12.064L58 .548H38.342zm16.222 22.403c1.066-5.03 5.23-12.225 16.755-12.225 11.56 0 12.658 7.195 11.56 12.225l-.967 4.564H70.353l1.133-5.363c.3-1.466.733-3.498-1.866-3.498-2.631 0-3.031 1.999-3.364 3.498l-4.63 21.819c-.3 1.465-.733 3.497 1.865 3.497 2.632 0 3.031-1.999 3.365-3.498l1.632-7.728h11.559l-1.466 6.929c-1.066 5.03-5.23 12.225-16.755 12.225-11.56 0-12.659-7.195-11.56-12.225l4.298-20.22zm31.279-7.428C88.075 5.03 95.87 0 105.063 0c8.395 0 15.257 3.098 13.125 13.158l-1.266 5.963h-11.759l1.133-5.363c.566-2.699-.233-4.231-2.998-4.231-3.298 0-4.497 3.231-4.864 4.897l-5.629 26.515c-.3 1.4-1.033 4.897 2.532 4.897 2.764 0 4.23-1.266 4.83-4.03l1.465-6.93h-4.363l2.098-9.926h16.323l-6.296 29.547H98.568l.933-4.364h-.167c-2.998 3.631-6.296 5.23-10.66 5.23-8.86 0-9.76-7.395-8.06-15.523l5.229-24.317zM139.04 54.53h-10.593l.7-3.298h-.167c-2.298 2.632-5.862 4.164-9.06 4.164-8.461 0-8.095-6.196-6.629-13.091 1.699-8.061 6.795-10.76 11.426-12.625 4.696-1.799 9.06-2.831 10.06-7.462.499-2.298.233-3.564-1.933-3.564-2.065 0-3.197 1.133-3.564 2.965l-.733 3.497h-10.759l.833-3.897c1.332-6.329 7.861-10.493 15.789-10.493 10.393 0 13.091 4.164 11.126 13.424l-6.496 30.38zm-6.562-21.552l-3.731 2.365c-1.565 1-2.465 2.132-2.831 3.83l-1.199 5.697c-.5 2.432.199 3.43 1.832 3.43 1.832 0 3.031-1.665 3.497-3.763l2.432-11.56zm17.555-21.353h10.96l-1.599 7.595h.133c2.465-3.964 4.83-8.46 10.06-8.46l-2.965 13.957h-2.698c-3.964 0-5.629 2.498-6.262 5.43l-5.197 24.383h-11.559l9.127-42.905z" fill="#232035" fill-opacity=".1"/><path d="M188.574 54.53h-11.559l.933-4.297h-.133c-2.099 3.298-5.397 5.163-9.161 5.163-5.429 0-7.595-4.763-5.862-12.824l4.463-20.953c1.466-6.862 5.064-10.893 10.693-10.893 4.164 0 6.196 1.466 7.262 4.764h.133L188.441.866H200L188.574 54.53zm-5.263-29.613c.566-2.632.633-5.43-1.799-5.43-1.066 0-2.465.866-2.831 2.632l-4.63 21.752c-.467 2.198.533 2.831 1.699 2.831 2.964 0 3.797-4.03 4.43-6.995l3.131-14.79zm12.425 22.018c2.098 0 3.997 1.5 3.997 3.864 0 2.365-1.865 3.898-3.997 3.898-2.099 0-3.998-1.533-3.998-3.898.034-2.332 1.899-3.864 3.998-3.864zm0 6.929c1.599 0 2.931-1.266 2.931-3.065 0-1.765-1.332-3.031-2.931-3.031-1.633 0-2.932 1.266-2.932 3.031 0 1.799 1.299 3.065 2.932 3.065zm-1.533-5.23h1.633c1.099 0 1.698.333 1.698 1.3 0 .799-.499 1.098-1.132 1.165l1.166 1.899h-.9l-1.066-1.866h-.533v1.866h-.866v-4.364zm.866 1.832h.733c.467 0 .833-.067.833-.6 0-.466-.5-.533-.866-.533h-.7v1.133z" fill="#232035" fill-opacity=".1"/></svg>