<svg width="300" height="44" fill="none" xmlns="http://www.w3.org/2000/svg"><path fill-rule="evenodd" clip-rule="evenodd" d="M113.926.887H103.09v34.674h25.627v-9.057h-14.791V.887z" fill="#232035" fill-opacity=".1"/><path fill-rule="evenodd" clip-rule="evenodd" d="M155.625 22.413c-.254-7.558-5.724-12.678-13.555-12.678-8.127 0-13.731 5.468-13.731 13.331 0 7.863 5.554 13.28 13.626 13.28 7.97 0 13.6-5.4 13.676-13.224-.007-.206-.021-.402-.021-.612.002-.032.005-.064.005-.097zm-13.658 7.147c-2.725 0-4.029-2.274-4.029-6.492 0-4.217 1.251-6.438 3.926-6.438 2.83 0 4.476 2.254 4.476 6.42 0 4.373-1.596 6.51-4.373 6.51z" fill="#232035" fill-opacity=".1"/><path fill-rule="evenodd" clip-rule="evenodd" d="M172.984 13.437c-1.749-2.71-3.479-3.75-6.771-3.75-6.401 0-10.552 5.432-10.59 12.727.006.183.025.361.025.548 0 .053-.006.103-.006.159.214 7.066 4.124 11.258 10.571 11.258 3.084 0 4.973-.886 6.873-3.123v2.727c0 3.497-.929 4.759-3.789 4.759-2.828 0-3.359-1.038-3.874-3.195h-8.929c.781 6.34 3.342 8.453 12.751 8.453 5.864 0 9.377-1.51 11.488-4.844 1.181-1.82 1.59-3.593 1.59-6.82V10.414h-9.344v3.023h.005zm-3.841 14.365c-2.878 0-4.179-1.856-4.179-5.346 0-3.07 1.503-5.668 4.179-5.668 2.678 0 4.133 2.738 4.133 6.07-.001 3.122-1.457 4.944-4.133 4.944zm24.959-1.322c-.004-.04-.01-.078-.013-.118h.013V10.415h-9.689v25.146h9.689v-9.082zM228.922.865l-9.79 9.549.052 16.818c0 2.865.202 3.8.924 5.157 1.336 2.499 4.03 3.487 8.863 3.487 1.646 0 4.44-.106 6.806-.313v-6.767h-3.208c-3.19 0-3.565-.415-3.652-3.438V17.65h6.857v-7.235h-6.857V.864h.005z" fill="#232035" fill-opacity=".1"/><path d="M247.598 10.415h-9.69v25.146h9.69V10.415z" fill="#232035" fill-opacity=".1"/><path fill-rule="evenodd" clip-rule="evenodd" d="M261.283 29.297c-2.741 0-4.096-2.17-4.096-6.022 0-4.323 1.414-6.7 4.149-6.7 1.909 0 3.209 1.38 3.471 3.412h9.187c-.413-6.043-5.556-10.149-12.711-10.149-8.215 0-13.679 5.365-13.679 13.386 0 7.759 5.518 12.964 13.581 12.964 7.307 0 12.139-3.055 13.018-9.826h-9.19c-.414 2.552-2.247 2.935-3.73 2.935z" fill="#232035" fill-opacity=".1"/><path fill-rule="evenodd" clip-rule="evenodd" d="M289.528 19.368c-4.886-.884-5.418-1.197-5.418-2.393 0-1.04.791-1.649 2.588-1.649 2.161 0 2.847.55 3.207 2.323h8.721c-.508-5.574-4.213-7.963-12.187-7.963-7.562 0-11.723 2.862-11.723 7.964 0 2.5 1.127 4.585 3.139 5.784 1.541.935 2.876 1.353 7.246 2.288 4.577.989 4.8 1.466 4.8 2.533 0 1.252-1.275 2.032-2.999 2.032-3.279 0-3.412-1.755-3.617-3.923h-9.087c.462 6.124 3.362 9.825 12.6 9.825 7.868 0 12.496-3.228 12.496-8.8a8.364 8.364 0 00-.716-3.383c-1.079-2.293-3.703-3.646-9.05-4.638zM206.691 36.19c7.865 0 12.493-3.23 12.493-8.8a8.32 8.32 0 00-.715-3.384c-1.083-2.291-3.705-3.644-9.052-4.636-4.886-.884-5.416-1.197-5.416-2.393 0-1.04.787-1.649 2.586-1.649 2.16 0 2.85.638 3.207 2.323h8.722c-.513-5.487-4.214-7.963-12.185-7.963-7.565 0-11.731 2.862-11.731 7.964 0 2.5 1.132 4.585 3.141 5.782 1.544.939 2.879 1.354 7.25 2.292 4.578.988 4.8 1.463 4.8 2.533 0 1.25-1.276 2.03-3.003 2.03-3.273 0-3.412-1.839-3.617-3.923h-9.074v.117c.501 5.967 3.417 9.707 12.594 9.707zM36.748.886H24.28s-5.087 8.382-5.652 9.685c-.77-1.77-6.346-9.685-6.346-9.685H0l12.458 16.299L.011 35.56h12.566l2.862-5.464a47.252 47.252 0 002.727-5.154c.771 1.921 1.338 3.017 2.52 4.997l3.343 5.621h12.719L24.44 17.183 36.748.886zM61.693 3.02C59.326 1.408 56.755.886 51.149.886H36.748v34.677h10.854V24.89h6.117c4.526 0 7.355-.988 9.566-3.177 2.21-2.238 3.395-5.154 3.395-8.538 0-4.373-1.802-8.02-4.987-10.155zM51.8 16.714h-4.198v-7.29h3.993c3.086 0 4.525 1.199 4.525 3.7 0 2.494-1.285 3.644-4.32 3.59z" fill="#232035" fill-opacity=".1"/><path fill-rule="evenodd" clip-rule="evenodd" d="M83.986 0c-10.646 0-17.64 7.238-17.64 18.226 0 10.986 7.046 18.17 17.536 18.17 10.284 0 17.227-7.237 17.227-18.119C101.109 7.394 94.219 0 83.986 0zm-.104 27.858c-4.37 0-6.584-3.595-6.584-9.788 0-5.885 2.316-9.532 6.534-9.532 4.164 0 6.377 3.44 6.377 9.271-.002 6.56-2.059 10.05-6.327 10.05z" fill="#232035" fill-opacity=".1"/></svg>