<svg width="108" height="163" fill="none" xmlns="http://www.w3.org/2000/svg"><path d="M31.69 104.57v-9.238c0-7.018 1.432-12.926 4.296-17.725 2.865-4.87 7.95-9.596 15.254-14.18 5.801-3.652 9.955-6.946 12.461-9.882 2.578-2.936 3.867-6.302 3.867-10.098 0-3.008-1.36-5.37-4.082-7.09-2.721-1.79-6.266-2.685-10.634-2.685-10.814 0-23.454 3.831-37.92 11.494L0 15.947C17.832 5.778 36.452.693 55.86.693c15.97 0 28.502 3.51 37.597 10.528 9.095 7.018 13.643 16.578 13.643 28.681 0 8.666-2.041 16.185-6.123 22.559-4.01 6.302-10.456 12.282-19.336 17.94-7.52 4.87-12.247 8.45-14.18 10.742-1.862 2.22-2.793 4.87-2.793 7.949v5.478H31.689zm-4.62 37.598c0-6.589 1.898-11.673 5.694-15.254 3.867-3.581 9.524-5.371 16.972-5.371 7.162 0 12.64 1.826 16.436 5.478 3.867 3.581 5.8 8.63 5.8 15.147 0 6.517-2.005 11.566-6.015 15.146-3.939 3.581-9.346 5.372-16.22 5.372-7.09 0-12.64-1.755-16.651-5.264-4.01-3.581-6.016-8.665-6.016-15.254z" fill="#fff" fill-opacity=".15"/></svg>